<?xml version="1.0" encoding="utf-8"?>
<!-- Generator: Adobe Illustrator 21.1.0, SVG Export Plug-In . SVG Version: 6.00 Build 0)  -->
<svg version="1.1" id="레이어_1" xmlns="http://www.w3.org/2000/svg" xmlns:xlink="http://www.w3.org/1999/xlink" x="0px"
	 y="0px" viewBox="0 0 25 25" style="enable-background:new 0 0 25 25;" xml:space="preserve">
<style type="text/css">
	.st0{fill:#FAF0E6;}
</style>
<path class="st0" d="M19.1,4C19,4,18.9,4,18.8,4c-2.1-1.1-4-1.6-6.2-1.6c-2.2,0-4.3,0.5-6.2,1.6C6.2,4.1,5.8,4,5.7,3.7
	C5.5,3.5,5.6,3.1,5.9,3c2.1-1.1,4.3-1.7,6.7-1.7C15,1.2,17,1.8,19.3,3c0.3,0.1,0.4,0.5,0.2,0.8C19.4,3.9,19.3,4,19.1,4z M3.2,9.9
	c-0.1,0-0.2,0-0.3-0.1C2.6,9.7,2.5,9.3,2.7,9.1c1.1-1.6,2.5-2.8,4.2-3.7c3.5-1.8,8-1.8,11.5,0C20,6.2,21.4,7.4,22.5,9
	c0.2,0.3,0.1,0.6-0.1,0.8c-0.2,0.2-0.6,0.1-0.8-0.1c-1-1.4-2.3-2.5-3.8-3.3c-3.2-1.7-7.3-1.7-10.4,0C5.9,7.2,4.6,8.3,3.6,9.7
	C3.5,9.9,3.3,9.9,3.2,9.9z M10.1,23.5c-0.1,0-0.3-0.1-0.4-0.2c-1-1-1.5-1.6-2.2-3c-0.8-1.4-1.2-3.1-1.2-4.9c0-3.3,2.8-6.1,6.3-6.1
	s6.3,2.7,6.3,6.1c0,0.3-0.2,0.6-0.6,0.6s-0.6-0.3-0.6-0.6c0-2.7-2.3-4.9-5.2-4.9c-2.9,0-5.2,2.2-5.2,4.9c0,1.6,0.4,3.1,1,4.3
	c0.7,1.3,1.2,1.9,2,2.7c0.2,0.2,0.2,0.6,0,0.8C10.4,23.5,10.2,23.5,10.1,23.5z M18.1,21.4c-1.3,0-2.5-0.3-3.4-1
	c-1.6-1.1-2.6-3-2.6-4.9c0-0.3,0.2-0.6,0.6-0.6c0.3,0,0.6,0.3,0.6,0.6c0,1.6,0.8,3.1,2.2,4c0.8,0.5,1.7,0.8,2.8,0.8
	c0.3,0,0.7,0,1.2-0.1c0.3-0.1,0.6,0.2,0.6,0.5c0.1,0.3-0.1,0.6-0.4,0.7C18.8,21.4,18.2,21.4,18.1,21.4z M15.8,23.8c0,0-0.1,0-0.1,0
	c-1.8-0.5-2.9-1.2-4.1-2.4c-1.5-1.6-2.4-3.7-2.4-5.9c0-1.8,1.5-3.3,3.4-3.3s3.4,1.5,3.4,3.3c0,1.2,1,2.2,2.3,2.2
	c1.3,0,2.3-1,2.3-2.2c0-4.2-3.6-7.7-8-7.7c-3.2,0-6,1.8-7.3,4.5c-0.4,0.9-0.6,2-0.6,3.2c0,0.9,0.1,2.3,0.7,4.1
	c0.1,0.3,0,0.6-0.3,0.7c-0.3,0.1-0.6,0-0.7-0.3c-0.5-1.5-0.8-2.9-0.8-4.4c0-1.4,0.3-2.6,0.8-3.6C5.7,8.7,9,6.7,12.6,6.7
	c5,0,9.2,4,9.2,8.8c0,1.8-1.5,3.3-3.4,3.3s-3.4-1.5-3.4-3.3c0-1.2-1-2.2-2.3-2.2s-2.3,1-2.3,2.2c0,1.9,0.7,3.7,2.1,5.1
	c1,1.1,2.1,1.6,3.6,2.1c0.3,0.1,0.5,0.4,0.4,0.7C16.3,23.6,16.1,23.8,15.8,23.8z"/>
</svg>
