<?xml version="1.0" encoding="utf-8"?>
<!-- Generator: Adobe Illustrator 21.1.0, SVG Export Plug-In . SVG Version: 6.00 Build 0)  -->
<svg version="1.1" id="레이어_1" xmlns="http://www.w3.org/2000/svg" xmlns:xlink="http://www.w3.org/1999/xlink" x="0px"
	 y="0px" viewBox="0 0 25 25" style="enable-background:new 0 0 25 25;" xml:space="preserve">
<style type="text/css">
	.st0{fill:none;}
	.st1{fill:#FAF0E6;}
	.st2{fill:none;stroke:#001931;stroke-linecap:round;stroke-miterlimit:10;}
</style>
<g>
	<path class="st0" d="M12.4,14.3c-2.6,0-4.7-2.1-4.7-4.7s2.1-4.7,4.7-4.7s4.7,2.1,4.7,4.7S15,14.3,12.4,14.3c3.9,0,7.1,2.6,8.1,6.2
		h0.1c2-2.1,3.3-4.9,3.3-8.1C23.9,6.1,18.8,1,12.4,1C6.1,1,0.9,6.1,0.9,12.5c0,3.1,1.3,6,3.3,8.1h0.1C5.3,17,8.6,14.3,12.4,14.3z"/>
	<circle class="st1" cx="12.4" cy="9.6" r="4.7"/>
	<path class="st1" d="M12.4,14.3c-3.9,0-7.1,2.6-8.1,6.2h16.2C19.6,17,16.3,14.3,12.4,14.3z"/>
</g>
<line class="st2" x1="15.8" y1="15.2" x2="21.1" y2="15.2"/>
<line class="st2" x1="18.4" y1="12.5" x2="18.4" y2="17.8"/>
</svg>
