<?xml version="1.0" encoding="utf-8"?>
<!-- Generator: Adobe Illustrator 21.1.0, SVG Export Plug-In . SVG Version: 6.00 Build 0)  -->
<svg version="1.1" id="레이어_1" xmlns="http://www.w3.org/2000/svg" xmlns:xlink="http://www.w3.org/1999/xlink" x="0px"
	 y="0px" viewBox="0 0 40 40" style="enable-background:new 0 0 40 40;" xml:space="preserve">
<style type="text/css">
	.st0{fill:none;stroke:#323232;stroke-width:2.5;stroke-miterlimit:10;}
	.st1{fill:none;stroke:#323232;stroke-width:2.5;stroke-linecap:round;stroke-miterlimit:10;}
</style>
<g>
	<g>
		<path class="st0" d="M10.6,34.6c0.2,1.5,1.4,2.7,2.9,2.7h13.7c1.5,0,2.7-1.2,2.9-2.7l2.6-24.7H8L10.6,34.6z"/>
		<path class="st0" d="M33.5,3.9h-8.8c0-0.8-0.7-1.5-1.5-1.5h-5.8C16.7,2.3,16,3,16,3.9H7.3c-0.8,0-1.5,0.7-1.5,1.5s0.7,1.5,1.5,1.5
			h26.2c0.8,0,1.5-0.7,1.5-1.5S34.3,3.9,33.5,3.9z"/>
	</g>
	<line class="st1" x1="13.8" y1="16" x2="15.3" y2="33.4"/>
	<line class="st1" x1="20.4" y1="15.9" x2="20.4" y2="33.4"/>
	<line class="st1" x1="27" y1="16" x2="25.4" y2="33.4"/>
</g>
</svg>
