<?xml version="1.0" encoding="utf-8"?>
<!-- Generator: Adobe Illustrator 21.1.0, SVG Export Plug-In . SVG Version: 6.00 Build 0)  -->
<svg version="1.1" id="레이어_1" xmlns="http://www.w3.org/2000/svg" xmlns:xlink="http://www.w3.org/1999/xlink" x="0px"
	 y="0px" viewBox="0 0 18 18" style="enable-background:new 0 0 18 18;" xml:space="preserve">
<path d="M12.3,4c0.4-0.4,0.9-0.8,1.4-1.2c0.9-0.7,1.8-1.3,2.8-1.8C16.7,1,16.8,1,17,1c-0.1,0.1-0.1,0.3-0.2,0.4
	c-0.7,0.7-1.3,1.4-2,2.1c-0.8,0.8-1.5,1.6-2.3,2.4c-1.3,1.4-2.4,3-3.4,4.6c-0.8,1.4-1.6,2.8-2.2,4.4c-0.2,0.6-0.5,1.3-0.7,1.9
	c0,0.1-0.1,0.1-0.1,0.2c-0.2-0.6-0.4-1.2-0.6-1.8c-0.3-1-0.7-2-1.3-3C3.6,11,2.8,9.9,1.8,8.9C1.5,8.6,1.3,8.3,1,8c0,0,0-0.1,0-0.1
	c0.1,0,0.3,0,0.4,0.1c0.7,0.3,1.3,0.7,1.9,1.2c0.6,0.5,1.1,1.1,1.6,1.7c0.4,0.5,0.7,1,1,1.5c0,0.1,0.1,0.1,0.2,0.2
	c0.1-0.2,0.2-0.3,0.3-0.4c0.4-1.1,1-2,1.7-3c0.6-1,1.3-1.9,2-2.7c0.4-0.4,0.8-0.9,1.2-1.3"/>
</svg>
