<?xml version="1.0" encoding="utf-8"?>
<!-- Generator: Adobe Illustrator 21.1.0, SVG Export Plug-In . SVG Version: 6.00 Build 0)  -->
<svg version="1.1" id="레이어_1" xmlns="http://www.w3.org/2000/svg" xmlns:xlink="http://www.w3.org/1999/xlink" x="0px"
	 y="0px" viewBox="0 0 18 18" style="enable-background:new 0 0 18 18;" xml:space="preserve">
<path d="M7.6,7.8c0.5-0.6,1-1.1,1.6-1.6c1.8-1.9,3.8-3.7,6-5.1c0.4-0.2,0.7-0.4,1.1-0.6c0.1,0,0.2,0,0.3,0c0,0.1,0,0.2,0,0.3
	c-0.2,0.3-0.4,0.7-0.7,1c-1.5,1.7-3.1,3.4-4.7,5.2C10.4,7.6,9.7,8.3,9,9.1C8.8,9.3,8.8,9.4,9,9.6c1.5,1.9,2.8,3.9,4,5.9
	c0.3,0.5,0.6,1.1,0.8,1.7c0.1,0.1,0,0.3,0,0.5c-0.1,0-0.3-0.1-0.4-0.2c-0.7-0.6-1.4-1.2-2-2c-1.3-1.5-2.5-3-3.7-4.5
	c-0.1-0.1-0.1-0.1-0.2-0.2C7,11.2,6.7,11.6,6.3,12c-0.9,1-1.8,1.9-2.9,2.8c-0.5,0.4-1,0.6-1.5,1c-0.1,0-0.1,0.1-0.2,0.1
	c-0.1,0-0.2,0-0.3,0c0-0.1,0-0.2,0-0.3c0.3-0.4,0.6-0.9,0.9-1.3c1.1-1.5,2.3-2.9,3.4-4.4c0.4-0.5,0.4-0.5,0-1.1
	C4.8,7,3.7,5.3,2.6,3.6c0,0-0.1-0.1-0.1-0.1c0-0.1,0-0.2,0-0.3c0,0,0.2,0,0.3,0c0.5,0.1,1,0.5,1.4,0.8c0.9,0.8,1.7,1.7,2.5,2.7
	C7,7,7.3,7.4,7.6,7.8z"/>
</svg>
