<?xml version="1.0" encoding="utf-8"?>
<!-- Generator: Adobe Illustrator 21.1.0, SVG Export Plug-In . SVG Version: 6.00 Build 0)  -->
<svg version="1.1" id="레이어_1" xmlns="http://www.w3.org/2000/svg" xmlns:xlink="http://www.w3.org/1999/xlink" x="0px"
	 y="0px" viewBox="0 0 25 25" style="enable-background:new 0 0 25 25;" xml:space="preserve">
<style type="text/css">
	.st0{fill:#FAF0E6;}
</style>
<path class="st0" d="M12.5,6.8c0.1-0.1,0.2-0.3,0.2-0.4c0.5-0.8,1.2-1.5,2-1.9c0.7-0.4,1.5-0.5,2.2-0.5c0.9,0,1.7,0.2,2.5,0.6
	c1.4,0.8,2.4,2,2.8,3.5c0.5,1.9,0.1,3.6-1,5.2c-0.6,0.8-1.3,1.4-2,2c-0.9,0.7-1.8,1.4-2.8,2c-0.8,0.6-1.6,1.2-2.3,1.8
	c-0.6,0.6-1.2,1.2-1.6,1.8c0,0,0,0,0,0c0,0,0,0,0,0c-0.6-0.8-1.3-1.5-2-2.2c-0.8-0.7-1.7-1.3-2.6-2c-0.8-0.6-1.6-1.1-2.3-1.7
	c-0.7-0.6-1.4-1.2-1.9-2c-0.6-0.9-1-1.9-1.1-3C2.4,8.3,3,6.7,4.4,5.4c0.8-0.8,1.8-1.2,3-1.4c0.6-0.1,1.2-0.1,1.8,0
	c0.8,0.2,1.5,0.6,2.1,1.1C11.7,5.6,12.1,6.1,12.5,6.8C12.5,6.7,12.5,6.8,12.5,6.8z"/>
</svg>
