<?xml version="1.0" encoding="utf-8"?>
<!-- Generator: Adobe Illustrator 21.1.0, SVG Export Plug-In . SVG Version: 6.00 Build 0)  -->
<svg version="1.1" id="레이어_1" xmlns="http://www.w3.org/2000/svg" xmlns:xlink="http://www.w3.org/1999/xlink" x="0px"
	 y="0px" viewBox="0 0 25 25" style="enable-background:new 0 0 25 25;" xml:space="preserve">
<style type="text/css">
	.st0{fill-rule:evenodd;clip-rule:evenodd;fill:#FAF0E6;}
	.st1{fill:#FAF0E6;}
</style>
<path class="st0" d="M6.8,10.8V7.1c0-1.5,0.6-3,1.7-4.1s2.5-1.7,4.1-1.7c1.5,0,3,0.6,4.1,1.7c1.1,1.1,1.7,2.5,1.7,4.1v3.7
	c-0.1-0.1-0.1-0.1-0.2-0.2c-0.4-0.4-0.9-0.8-1.4-1.1V7.1c0-1.1-0.4-2.2-1.2-2.9c-0.8-0.8-1.8-1.2-2.9-1.2c-1.1,0-2.2,0.4-2.9,1.2
	S8.3,6,8.3,7.1v2.4c-0.5,0.3-1,0.7-1.4,1.1C6.9,10.7,6.8,10.8,6.8,10.8z"/>
<path class="st1" d="M12.5,8.8c2,0,3.9,0.8,5.2,2.2c1.3,1.3,2.2,3.2,2.2,5.2s-0.8,3.9-2.2,5.2c-1.3,1.3-3.2,2.2-5.2,2.2
	s-3.9-0.8-5.2-2.2c-1.3-1.3-2.2-3.2-2.2-5.2s0.8-3.9,2.2-5.2C8.6,9.6,10.5,8.8,12.5,8.8L12.5,8.8z M12.2,16.6V18
	c0,0.2,0.1,0.3,0.3,0.3c0.2,0,0.3-0.1,0.3-0.3v-1.4c0.2-0.1,0.4-0.2,0.6-0.3c0.2-0.2,0.4-0.5,0.4-0.9c0-0.4-0.1-0.7-0.4-0.9
	c-0.2-0.2-0.5-0.4-0.9-0.4c-0.4,0-0.7,0.1-0.9,0.4c-0.2,0.2-0.4,0.5-0.4,0.9c0,0.4,0.1,0.7,0.4,0.9C11.8,16.5,12,16.6,12.2,16.6z"/>
</svg>
