<?xml version="1.0" encoding="utf-8"?>
<!-- Generator: Adobe Illustrator 21.1.0, SVG Export Plug-In . SVG Version: 6.00 Build 0)  -->
<svg version="1.1" id="레이어_1" xmlns="http://www.w3.org/2000/svg" xmlns:xlink="http://www.w3.org/1999/xlink" x="0px"
	 y="0px" viewBox="0 0 40 40" style="enable-background:new 0 0 40 40;" xml:space="preserve">
<style type="text/css">
	.st0{fill:none;stroke:#323232;stroke-width:2.5;stroke-miterlimit:10;}
	.st1{fill:none;stroke:#323232;stroke-width:2.5;stroke-linecap:round;stroke-miterlimit:10;}
</style>
<g>
	<path class="st0" d="M6.7,7.7h4.4c0.3,0,0.5-0.2,0.5-0.5V2.8c0-0.2-0.1-0.3-0.3-0.4c-0.2-0.1-0.3-0.1-0.5,0L6.4,6.8
		C6.3,6.9,6.3,7.1,6.3,7.3C6.4,7.6,6.5,7.7,6.7,7.7z"/>
	<path class="st1" d="M30,2.1H15.4c-0.3,0-0.5,0.2-0.5,0.5v7.4c0,0.3-0.1,0.6-0.3,0.8c-0.2,0.2-0.5,0.3-0.8,0.3H6.5
		c-0.3,0-0.5,0.1-0.5,0.4v22.6c0,2.2,1.8,4,4,4h20c2.2,0,4-1.8,4-4v-28C34,3.8,32.2,2.1,30,2.1z"/>
</g>
<g>
	<line class="st1" x1="10.7" y1="17.6" x2="29.3" y2="17.6"/>
	<line class="st1" x1="10.7" y1="23.8" x2="29.3" y2="23.8"/>
	<line class="st1" x1="10.7" y1="30.1" x2="29.3" y2="30.1"/>
</g>
</svg>
