<?xml version="1.0" encoding="utf-8"?>
<!-- Generator: Adobe Illustrator 21.1.0, SVG Export Plug-In . SVG Version: 6.00 Build 0)  -->
<svg version="1.1" id="레이어_1" xmlns="http://www.w3.org/2000/svg" xmlns:xlink="http://www.w3.org/1999/xlink" x="0px"
	 y="0px" viewBox="0 0 60 60" style="enable-background:new 0 0 60 60;" xml:space="preserve">
<style type="text/css">
	.st0{fill:#C4C4C4;stroke:#C4C4C4;stroke-miterlimit:10;}
</style>
<g>
	<path class="st0" d="M52.6,45.7c1.5-2.9,1.1-6.5-1.1-8.7c-1.3-1.4-3.1-2.1-5-2.1c0,0,0,0,0,0c-1.9,0-3.7,0.8-5,2.1l-13,11.6
		c-2,2.1-4.4,3.2-6.7,3.2c-2.3,0-4.5-1-6.3-2.9c-1.5-1.5-2.6-6-2.9-9.4c2.7,1.8,5.8,2.8,9.1,2.8c4.4,0,8.5-1.7,11.7-4.8l11.2-11.2
		c2.3-2.3,2.3-6.1,0-8.5l-0.1-0.1c0.4-0.6,0.6-1.3,0.6-2c0-1-0.4-1.9-1.1-2.6c-1.4-1.4-3.7-1.4-5.1,0c-0.7,0.7-1.1,1.6-1.1,2.6
		s0.4,1.9,1.1,2.6c0.7,0.7,1.6,1.1,2.6,1.1c0.4,0,0.7-0.1,1-0.2l0.3,0.3c1.4,1.4,1.4,3.7,0,5L31.6,35.6c-2,2-4.4,3.3-7.1,3.8
		c0-0.2-0.1-0.4-0.3-0.5L8.5,22c-0.1-0.1-0.2-0.2-0.3-0.2c0.6-2.2,1.8-4.3,3.6-6L22.9,4.5c1.3-1.3,3.7-1.3,5,0l0.3,0.3
		c-0.1,0.3-0.2,0.7-0.2,1c0,1,0.4,1.9,1.1,2.6c0.7,0.7,1.6,1.1,2.6,1.1c0.9,0,1.9-0.4,2.6-1.1v0c0.7-0.7,1.1-1.6,1.1-2.6
		S35,4,34.3,3.3c-1.2-1.2-3.2-1.4-4.6-0.5l-0.1-0.1C28.6,1.6,27.1,1,25.5,1c-1.6,0-3.1,0.6-4.2,1.8L10,14c-6.4,6.4-6.4,16.9,0,23.3
		c0,0,0,0,0,0c-0.1,3.3,1.1,10.5,3.7,13.2c2.3,2.4,5.1,3.6,8.1,3.6c3,0,6-1.3,8.4-3.8l13-11.6c0.9-0.9,2.1-1.4,3.3-1.4c0,0,0,0,0,0
		c1.2,0,2.4,0.5,3.3,1.4c1.4,1.4,1.7,3.6,0.9,5.5c-1.1-0.6-2.4-0.9-3.7-0.9c-2.1,0-4.1,0.8-5.6,2.3c-1.5,1.5-2.3,3.5-2.3,5.6
		c0,2.1,0.8,4.1,2.3,5.6c1.5,1.5,3.5,2.3,5.6,2.3s4.1-0.8,5.6-2.3C55.6,53.7,55.6,48.8,52.6,45.7z M40.6,16.4
		c-0.2-0.2-0.4-0.5-0.4-0.9c0-0.3,0.1-0.6,0.4-0.9c0.2-0.2,0.5-0.4,0.9-0.4c0.3,0,0.6,0.1,0.9,0.4c0.2,0.2,0.4,0.5,0.4,0.9
		c0,0.3-0.1,0.6-0.4,0.9v0C41.8,16.8,41.1,16.8,40.6,16.4z M31.8,4.6c0.3,0,0.6,0.1,0.9,0.4C32.9,5.2,33,5.5,33,5.8
		c0,0.3-0.1,0.6-0.4,0.9v0c-0.5,0.5-1.2,0.5-1.7,0c-0.2-0.2-0.4-0.5-0.4-0.9c0-0.3,0.1-0.6,0.4-0.9C31.2,4.7,31.5,4.6,31.8,4.6z
		 M7.6,24.6l14,15.1c0,0,0,0,0,0c-3.8,0-7.3-1.5-9.9-4.1C8.7,32.6,7.3,28.6,7.6,24.6z M50.8,55c-1,1-2.4,1.6-3.9,1.6
		S44.2,56,43.1,55c-1-1-1.6-2.4-1.6-3.8c0-1.5,0.6-2.8,1.6-3.8c1-1,2.4-1.6,3.8-1.6s2.8,0.6,3.9,1.6C52.9,49.4,52.9,52.9,50.8,55z"
		/>
</g>
</svg>
