<?xml version="1.0" encoding="utf-8"?>
<!-- Generator: Adobe Illustrator 21.1.0, SVG Export Plug-In . SVG Version: 6.00 Build 0)  -->
<svg version="1.1" id="레이어_1" xmlns="http://www.w3.org/2000/svg" xmlns:xlink="http://www.w3.org/1999/xlink" x="0px"
	 y="0px" viewBox="0 0 60 60" style="enable-background:new 0 0 60 60;" xml:space="preserve">
<style type="text/css">
	.st0{fill:#C4C4C4;}
</style>
<g>
	<path class="st0" d="M32.2,8.9c-0.5-0.5-1.3-0.5-1.8,0c-0.5,0.5-0.5,1.3,0,1.8l2.8,2.8L8,38.6c-1.1,1.1-0.7,2.2-0.5,3
		c0,0.2,0.1,0.3,0.1,0.5l1.8,6.6l-8.1,8.1c-0.5,0.5-0.5,1.3,0,1.8C1.6,58.9,1.9,59,2.3,59s0.6-0.1,0.9-0.4l8-8l6.7,1.7
		c0.2,0,0.4,0.1,0.5,0.1c0.4,0.1,0.8,0.2,1.3,0.2c0.5,0,1.1-0.2,1.7-0.7l25.1-25.1l2.8,2.8c0.2,0.2,0.6,0.4,0.9,0.4s0.6-0.1,0.9-0.4
		c0.5-0.5,0.5-1.3,0-1.8L32.2,8.9z M19.7,50.2c-0.1,0-0.4-0.1-0.6-0.1c-0.2-0.1-0.4-0.1-0.6-0.2l-6.4-1.7c0-0.1-0.1-0.1-0.1-0.2
		c0,0-0.1-0.1-0.1-0.1l-1.7-6.4c-0.1-0.2-0.1-0.4-0.2-0.6c-0.1-0.2-0.2-0.5-0.2-0.5l2.4-2.4l4.3,4.3c0.2,0.2,0.6,0.4,0.9,0.4
		s0.6-0.1,0.9-0.4c0.5-0.5,0.5-1.3,0-1.8L14,36.2l3.4-3.4c0,0.2,0.1,0.5,0.3,0.7l2.5,2.5c0.2,0.2,0.6,0.4,0.9,0.4
		c0.3,0,0.6-0.1,0.9-0.4c0.5-0.5,0.5-1.3,0-1.8l-2.5-2.5c-0.2-0.2-0.4-0.3-0.7-0.3l3.6-3.6c0,0.2,0.1,0.5,0.3,0.7l3.8,3.8
		c0.2,0.2,0.6,0.4,0.9,0.4c0.3,0,0.6-0.1,0.9-0.4c0.5-0.5,0.5-1.3,0-1.8l-3.8-3.8c-0.2-0.2-0.4-0.3-0.7-0.3l2.8-2.8l2.4,2.4
		c0.2,0.2,0.6,0.4,0.9,0.4s0.6-0.1,0.9-0.4c0.5-0.5,0.5-1.3,0-1.8l-2.4-2.4l2.6-2.6l3,3c0.2,0.2,0.6,0.4,0.9,0.4s0.6-0.1,0.9-0.4
		c0.5-0.5,0.5-1.3,0-1.8l-3-3l2-2l9.8,9.8L19.7,50.2z"/>
	<path class="st0" d="M58.6,14L46,1.4c-0.5-0.5-1.3-0.5-1.8,0s-0.5,1.3,0,1.8L47.1,6l-6.7,6.7c-0.5,0.5-0.5,1.3,0,1.8
		c0.2,0.2,0.6,0.4,0.9,0.4c0.3,0,0.6-0.1,0.9-0.4l6.7-6.7l3.3,3.3l-6.7,6.7c-0.5,0.5-0.5,1.3,0,1.8c0.2,0.2,0.6,0.4,0.9,0.4
		s0.6-0.1,0.9-0.4l6.7-6.7l2.9,2.9c0.2,0.2,0.6,0.4,0.9,0.4s0.6-0.1,0.9-0.4C59.1,15.3,59.1,14.5,58.6,14z"/>
</g>
</svg>
