<?xml version="1.0" encoding="utf-8"?>
<!-- Generator: Adobe Illustrator 21.1.0, SVG Export Plug-In . SVG Version: 6.00 Build 0)  -->
<svg version="1.1" id="레이어_1" xmlns="http://www.w3.org/2000/svg" xmlns:xlink="http://www.w3.org/1999/xlink" x="0px"
	 y="0px" viewBox="0 0 60 60" style="enable-background:new 0 0 60 60;" xml:space="preserve">
<style type="text/css">
	.st0{fill:#001931;}
</style>
<g>
	<path class="st0" d="M30.9,18.3c-0.5-0.5-1.2-0.5-1.7,0c-0.5,0.5-0.5,1.2,0,1.7L40,30.9c0.2,0.2,0.5,0.4,0.9,0.4s0.6-0.1,0.9-0.4
		c0.5-0.5,0.5-1.2,0-1.7L30.9,18.3z"/>
	<path class="st0" d="M21.2,27.9c-0.5-0.5-1.2-0.5-1.7,0s-0.5,1.2,0,1.7l10.9,10.9c0.2,0.2,0.5,0.4,0.9,0.4c0.3,0,0.6-0.1,0.9-0.4
		c0.5-0.5,0.5-1.2,0-1.7L21.2,27.9z"/>
	<path class="st0" d="M58.9,18c-0.6-3.6-2-8.5-5.2-11.6C50.5,3.2,45.6,1.8,42,1.1c-3.1-0.5-6.2,0.5-8.5,2.7L3.8,33.6
		c-2.3,2.3-3.3,5.5-2.7,8.7c0.7,3.4,2.2,8.2,5.3,11.3c3.1,3.1,7.8,4.6,11.3,5.3c0.6,0.1,1.3,0.2,1.9,0.2c2.5,0,5-1,6.8-2.8
		l29.7-29.7C58.4,24.2,59.4,21,58.9,18z M54.5,24.7L24.7,54.5c-1.7,1.7-4.1,2.5-6.5,2c-3.1-0.6-7.4-1.9-10-4.6
		c-2.7-2.7-4-6.9-4.6-10c-0.5-2.3,0.3-4.8,2-6.5L35.3,5.5c1.4-1.4,3.2-2.1,5.1-2.1c0.4,0,0.8,0,1.2,0.1C44.8,4.1,49.3,5.3,52,8
		c2.7,2.7,3.9,7.1,4.5,10.3C56.9,20.7,56.1,23,54.5,24.7z"/>
	<circle class="st0" cx="46.9" cy="13.1" r="2.4"/>
	<circle class="st0" cx="46.9" cy="22.7" r="2.4"/>
	<circle class="st0" cx="37.3" cy="13.1" r="2.4"/>
	<circle class="st0" cx="15.5" cy="45.7" r="2.4"/>
	<circle class="st0" cx="14.3" cy="36" r="2.4"/>
	<circle class="st0" cx="24" cy="46.9" r="2.4"/>
</g>
</svg>
