<?xml version="1.0" encoding="utf-8"?>
<!-- Generator: Adobe Illustrator 21.1.0, SVG Export Plug-In . SVG Version: 6.00 Build 0)  -->
<svg version="1.1" id="레이어_1" xmlns="http://www.w3.org/2000/svg" xmlns:xlink="http://www.w3.org/1999/xlink" x="0px"
	 y="0px" viewBox="0 0 60 60" style="enable-background:new 0 0 60 60;" xml:space="preserve">
<style type="text/css">
	.st0{fill:#C4C4C4;}
</style>
<g>
	<path class="st0" d="M49.3,12.3l-7.4-1.4c-1.9-0.4-3.2-2-3.2-3.9V4c0-1.6-1.3-2.9-2.9-2.9H24.2c-1.6,0-2.9,1.3-2.9,2.9V7
		c0,1.9-1.4,3.6-3.2,3.9l-7.4,1.4c-4.6,0.9-7.9,5.1-7.5,9.8l2.6,34.1c0.1,1.5,1.4,2.6,2.9,2.6h42.8c1.5,0,2.7-1.2,2.9-2.6l2.6-34.1
		C57.2,17.4,54,13.2,49.3,12.3L49.3,12.3z M54,21.9L51.4,56h-6.3l-1.4-6.6l4.8-21.1c0.2-0.8-0.3-1.5-1.1-1.7
		c-0.8-0.2-1.5,0.3-1.7,1.1l-4.9,21.4c0,0.2,0,0.4,0,0.6l1.3,6.3H17.8l1.3-6.3c0-0.2,0-0.4,0-0.6l-4.9-21.4
		c-0.2-0.8-0.9-1.3-1.7-1.1c-0.8,0.2-1.3,0.9-1.1,1.7l4.8,21.1L14.9,56H8.6L6,21.9c-0.2-3.2,2-6.2,5.2-6.8l7.4-1.4
		c3.2-0.6,5.6-3.4,5.6-6.7l0-3.1l11.7,0V7c0,3.3,2.3,6.1,5.6,6.7l7.4,1.4C52,15.8,54.2,18.7,54,21.9L54,21.9z M54,21.9"/>
	<path class="st0" d="M30,16.2c-0.6,0-1.1,0.5-1.1,1.1v24.8c0,0.6,0.5,1.1,1.1,1.1c0.6,0,1.1-0.5,1.1-1.1V17.3
		C31.1,16.7,30.6,16.2,30,16.2L30,16.2z M30,16.2"/>
</g>
</svg>
