<?xml version="1.0" encoding="utf-8"?>
<!-- Generator: Adobe Illustrator 21.1.0, SVG Export Plug-In . SVG Version: 6.00 Build 0)  -->
<svg version="1.1" id="레이어_1" xmlns="http://www.w3.org/2000/svg" xmlns:xlink="http://www.w3.org/1999/xlink" x="0px"
	 y="0px" viewBox="0 0 25 25" style="enable-background:new 0 0 25 25;" xml:space="preserve">
<style type="text/css">
	.st0{fill:#FBC22F;}
</style>
<g>
	<g>
		<path class="st0" d="M12.5,4.2L13.4,7c0.1,0.3,0.2,0.5,0.3,0.8c0.2,0.6,0.4,1.1,0.5,1.7c0.2,0.9,0.8,1.3,1.8,1.3c0,0,0,0,0,0
			c1.4,0,2.8,0,4.1,0l1.4,0L19,12.6L18.5,13c-0.5,0.4-1,0.7-1.5,1.1c-0.7,0.5-0.9,1.2-0.7,2c0.6,1.8,1.2,3.6,1.7,5.3L17.6,21
			c-1.3-1-2.7-1.9-4-2.9c-0.2-0.2-0.6-0.4-1.1-0.4c-0.5,0-0.9,0.2-1.1,0.4c-1.5,1.1-2.9,2.2-4.5,3.3C7,21.1,7,20.9,7.1,20.7l0.3-1
			c0.4-1.2,0.8-2.4,1.2-3.6C8.9,15.2,8.7,14.6,8,14c-1.5-1.1-3-2.2-4.5-3.3l1.9,0c1.2,0,2.4,0,3.6,0c1,0,1.6-0.5,1.9-1.4
			C11.3,7.7,11.9,6,12.5,4.2 M12.5,1c-0.9,2.8-1.8,5.5-2.6,8.1C9.7,9.6,9.5,9.8,8.9,9.8c0,0,0,0,0,0c-1.2,0-2.4,0-3.5,0
			c-1.3,0-2.6,0-4,0c-0.3,0-0.5,0-1,0c0.4,0.3,0.6,0.4,0.8,0.6c2.1,1.5,4.1,3,6.2,4.5c0.4,0.3,0.5,0.5,0.3,0.9
			c-0.5,1.5-1,3.1-1.5,4.6C5.8,21.5,5.4,22.7,5,24c2.4-1.8,4.7-3.4,7-5.1c0.2-0.1,0.4-0.2,0.5-0.2c0.2,0,0.3,0.1,0.5,0.2
			c1.7,1.3,3.4,2.5,5.1,3.7c0.6,0.4,1.1,0.8,1.8,1.3c-0.1-0.2-0.1-0.3-0.1-0.4c-0.8-2.6-1.7-5.2-2.5-7.8c-0.1-0.4-0.1-0.6,0.3-0.9
			c0.7-0.5,1.4-1,2.1-1.5c1.6-1.2,3.2-2.3,4.8-3.5c0,0-0.1-0.1-0.1-0.1c-1.4,0-2.8,0-4.2,0c-1.4,0-2.8,0-4.1,0c0,0,0,0,0,0
			c-0.5,0-0.7-0.1-0.8-0.6c-0.2-0.8-0.5-1.7-0.8-2.5C13.7,4.9,13.1,3,12.5,1L12.5,1z"/>
	</g>
</g>
</svg>
