<?xml version="1.0" encoding="utf-8"?>
<!-- Generator: Adobe Illustrator 21.1.0, SVG Export Plug-In . SVG Version: 6.00 Build 0)  -->
<svg version="1.1" id="레이어_1" xmlns="http://www.w3.org/2000/svg" xmlns:xlink="http://www.w3.org/1999/xlink" x="0px"
	 y="0px" viewBox="0 0 25 25" style="enable-background:new 0 0 25 25;" xml:space="preserve">
<style type="text/css">
	.st0{fill:#FBC22F;}
</style>
<g>
	<path class="st0" d="M24.4,9.9c-1.6,1.2-3.2,2.3-4.8,3.5c-0.7,0.5-1.4,1-2.1,1.5c-0.3,0.2-0.4,0.5-0.3,0.9c0.9,2.6,1.7,5.2,2.5,7.8
		c0,0.1,0,0.2,0.1,0.4c-0.7-0.5-1.3-0.9-1.8-1.3c-1.7-1.2-3.4-2.5-5.1-3.7c-0.4-0.3-0.6-0.3-1,0c-2.3,1.7-4.5,3.3-7,5.1
		c0.4-1.3,0.8-2.4,1.2-3.6c0.5-1.5,1-3.1,1.5-4.6c0.1-0.4,0.1-0.7-0.3-0.9c-2.1-1.5-4.1-3-6.2-4.5C1,10.2,0.8,10.1,0.4,9.8
		c0.5,0,0.7,0,1,0c2.5,0,5,0,7.5,0c0.5,0,0.8-0.2,0.9-0.7c0.8-2.7,1.7-5.3,2.6-8.1c0.7,2,1.3,3.9,1.9,5.7c0.3,0.8,0.6,1.7,0.8,2.5
		c0.1,0.5,0.4,0.6,0.9,0.6c2.8,0,5.6,0,8.3,0C24.3,9.8,24.4,9.9,24.4,9.9z"/>
</g>
</svg>
