<?xml version="1.0" encoding="utf-8"?>
<!-- Generator: Adobe Illustrator 21.1.0, SVG Export Plug-In . SVG Version: 6.00 Build 0)  -->
<svg version="1.1" id="레이어_1" xmlns="http://www.w3.org/2000/svg" xmlns:xlink="http://www.w3.org/1999/xlink" x="0px"
	 y="0px" viewBox="0 0 20 20" style="enable-background:new 0 0 20 20;" xml:space="preserve">
<style type="text/css">
	.st0{fill:#001931;}
</style>
<g id="transparent">
	<g>
		<path class="st0" d="M9.3,5.4c-2,0-2.7,1.9-2.7,3.6h1.4c0-1.2,0.1-2.2,1.3-2.2c0.9,0,1.3,0.4,1.3,1.3c0,0.6-0.5,0.9-0.9,1.4
			c-0.9,0.9-0.8,1.5-0.8,2.6H10c0-1.1,0-1,0.9-2c0.6-0.6,1-1.2,1-2.1C11.9,6.7,11.2,5.4,9.3,5.4z M9.7,0.9c-5,0-9,4-9,9c0,5,4,9,9,9
			c5,0,9-4,9-9C18.7,4.9,14.7,0.9,9.7,0.9z M9.7,18c-4.5,0-8.1-3.6-8.1-8.1c0-4.5,3.6-8.1,8.1-8.1c1.7,0,3.3,0.5,4.6,1.4
			c1.9,1.3,3.2,3.5,3.5,5.9c0,0.1,0,1.4,0,1.5C17.4,14.8,13.9,18,9.7,18z M9.7,13c-0.5,0-0.9,0.4-0.9,0.9c0,0.5,0.4,0.9,0.9,0.9
			c0.5,0,0.9-0.4,0.9-0.9C10.6,13.4,10.2,13,9.7,13z"/>
	</g>
</g>
</svg>
