<?xml version="1.0" encoding="utf-8"?>
<!-- Generator: Adobe Illustrator 21.1.0, SVG Export Plug-In . SVG Version: 6.00 Build 0)  -->
<svg version="1.1" id="레이어_1" xmlns="http://www.w3.org/2000/svg" xmlns:xlink="http://www.w3.org/1999/xlink" x="0px"
	 y="0px" viewBox="0 0 60 60" style="enable-background:new 0 0 60 60;" xml:space="preserve">
<style type="text/css">
	.st0{fill-rule:evenodd;clip-rule:evenodd;fill:#4EE98C;}
</style>
<path id="check" class="st0" d="M29.7,57.8c-15.3,0-27.8-12.4-27.8-27.8S14.4,2.3,29.7,2.3c15.3,0,27.8,12.4,27.8,27.8
	S45,57.8,29.7,57.8z M42.1,23l-2.3-2.3c-0.4-0.4-1.1-0.4-1.5,0L24.6,34.4l-6.5-6.6c-0.4-0.4-1.1-0.4-1.5,0l-2.3,2.3
	c-0.4,0.4-0.4,1.1,0,1.5l7.2,7.3c0,0,0,0,0,0l1.6,1.6l0.4,0.4l0,0l0.3,0.3c0.4,0.4,1.1,0.4,1.5,0l16.7-16.8
	C42.6,24.1,42.6,23.4,42.1,23z"/>
</svg>
