<?xml version="1.0" encoding="utf-8"?>
<!-- Generator: Adobe Illustrator 21.1.0, SVG Export Plug-In . SVG Version: 6.00 Build 0)  -->
<svg version="1.1" id="레이어_1" xmlns="http://www.w3.org/2000/svg" xmlns:xlink="http://www.w3.org/1999/xlink" x="0px"
	 y="0px" viewBox="0 0 20 20" style="enable-background:new 0 0 20 20;" xml:space="preserve">
<style type="text/css">
	.st0{fill:#001931;}
</style>
<g>
	<g id="error_transparent">
		<g>
			<path class="st0" d="M10.1,0.9c-5,0-9,4-9,9c0,5,4,9,9,9c5,0,9-4,9-9C19.1,4.9,15,0.9,10.1,0.9z M10.1,18C5.6,18,2,14.4,2,9.9
				c0-4.5,3.6-8.1,8.1-8.1c4.5,0,8.1,3.6,8.1,8.1C18.2,14.4,14.5,18,10.1,18z M13.1,7.6L12.4,7c-0.1-0.1-0.3-0.1-0.5,0l-1.9,1.9
				L8.1,7C8,6.8,7.8,6.8,7.7,7L7,7.6C6.8,7.8,6.8,8,7,8.1L8.9,10L7,12c-0.1,0.1-0.1,0.3,0,0.5l0.7,0.7c0.1,0.1,0.3,0.1,0.5,0
				l1.9-1.9l1.9,1.9c0.1,0.1,0.3,0.1,0.5,0l0.7-0.7c0.1-0.1,0.1-0.3,0-0.5L11.2,10l1.9-1.9C13.3,8,13.3,7.8,13.1,7.6z"/>
		</g>
	</g>
</g>
</svg>
