<?xml version="1.0" encoding="utf-8"?>
<!-- Generator: Adobe Illustrator 21.1.0, SVG Export Plug-In . SVG Version: 6.00 Build 0)  -->
<svg version="1.1" id="레이어_1" xmlns="http://www.w3.org/2000/svg" xmlns:xlink="http://www.w3.org/1999/xlink" x="0px"
	 y="0px" viewBox="0 0 60 60" style="enable-background:new 0 0 60 60;" xml:space="preserve">
<style type="text/css">
	.st0{fill:#FF5B47;}
</style>
<g>
	<path class="st0" d="M29.6,2.2C14.2,2.2,1.7,14.7,1.7,30.1C1.7,45.5,14.2,58,29.6,58C45,58,57.4,45.5,57.4,30.1
		C57.4,14.7,45,2.2,29.6,2.2z M40,36.2c0.4,0.4,0.4,1,0,1.4l-2.3,2.2c-0.4,0.4-1.1,0.4-1.5,0l-6.6-6.1L23,39.8
		c-0.4,0.4-1.1,0.4-1.5,0l-2.3-2.2c-0.4-0.4-0.4-1,0-1.4l6.6-6.1L19.2,24c-0.4-0.4-0.4-1,0-1.4l2.3-2.2c0.4-0.4,1.1-0.4,1.5,0
		l6.6,6.1l6.6-6.1c0.4-0.4,1.1-0.4,1.5,0l2.3,2.2c0.4,0.4,0.4,1,0,1.4l-6.6,6.1L40,36.2z"/>
</g>
</svg>
