<?xml version="1.0" encoding="utf-8"?>
<!-- Generator: Adobe Illustrator 21.1.0, SVG Export Plug-In . SVG Version: 6.00 Build 0)  -->
<svg version="1.1" id="레이어_1" xmlns="http://www.w3.org/2000/svg" xmlns:xlink="http://www.w3.org/1999/xlink" x="0px"
	 y="0px" viewBox="0 0 20 20" style="enable-background:new 0 0 20 20;" xml:space="preserve">
<style type="text/css">
	.st0{fill-rule:evenodd;clip-rule:evenodd;fill:#001931;}
	.st1{fill:#FFFFFF;}
</style>
<g>
	<circle id="bg" class="st0" cx="9.8" cy="10.1" r="8.8"/>
</g>
<g id="sign">
	<g>
		<path class="st1" d="M9.8,3.5C7,3.5,6.1,6.1,6,8.5h1.9c0-1.7,0.1-3.1,1.9-3.1c1.2,0,1.9,0.5,1.9,1.9c0,0.9-0.7,1.3-1.2,1.9
			c-1.2,1.2-1.1,2-1.2,3.7h1.6c0.1-1.5,0-1.4,1.3-2.7c0.8-0.8,1.4-1.6,1.4-2.9C13.5,5.3,12.5,3.5,9.8,3.5z M10.4,14.1
			c-0.7,0-1.3,0.6-1.3,1.3c0,0.7,0.6,1.3,1.3,1.3c0.7,0,1.3-0.6,1.3-1.3C11.7,14.7,11.1,14.1,10.4,14.1z"/>
	</g>
</g>
</svg>
