<?xml version="1.0" encoding="utf-8"?>
<!-- Generator: Adobe Illustrator 21.1.0, SVG Export Plug-In . SVG Version: 6.00 Build 0)  -->
<svg version="1.1" id="레이어_1" xmlns="http://www.w3.org/2000/svg" xmlns:xlink="http://www.w3.org/1999/xlink" x="0px"
	 y="0px" viewBox="0 0 60 60" style="enable-background:new 0 0 60 60;" xml:space="preserve">
<style type="text/css">
	.st0{fill:#C4C4C4;}
</style>
<g>
	<circle class="st0" cx="11.9" cy="31.8" r="1.8"/>
	<path class="st0" d="M55.9,30.6C58,28.4,59,25.3,59,21c0-0.5-0.2-0.9-0.5-1.3c-0.3-0.3-0.8-0.6-1.3-0.5c-4.1,0-8,2.1-10.4,5.5
		c-3.5-3.9-9.1-6.3-12.2-7.5c0.1-2,0.5-4.4,1-6.6c0.1-0.5,0-1.1-0.3-1.6c-0.3-0.4-0.9-0.7-1.4-0.7l0,0c-6.7,0-11.6,4.9-12.9,6.3
		s-2.6,2.4-4,3c-6.4,2.8-12.1,7.6-15.6,13.2c-0.4,0.6-0.4,1.3,0,1.9c1.8,2.9,4,5.4,6.4,7.6c0.7,0.7,1.9,0.6,2.6-0.2
		c0.7-0.7,0.6-1.9-0.2-2.6C8.2,36,6.5,34,5,31.8c3.2-4.6,8-8.5,13.3-10.9c1.9-0.8,3.6-2.1,5.3-3.9c1.8-2,4.7-4.1,8-4.9
		c-0.4,2.2-0.6,4.4-0.6,6.2c0,0.8,0.5,1.5,1.2,1.7c2.4,0.8,8.5,3.1,12,7c0.7,0.8,1.8,1.2,2.9,1.2c1.1-0.1,2.1-0.6,2.8-1.6
		c1.3-1.9,3.3-3.2,5.5-3.7c-0.3,2.3-0.9,4-2,5.1c-2,2.1-2,5.4,0,7.5c1.1,1.1,1.8,2.8,2,5.1c-2.2-0.5-4.2-1.8-5.5-3.7
		c-0.6-0.9-1.6-1.5-2.7-1.6c-1.1-0.1-2.2,0.3-2.9,1.2c-3,3.3-8.8,5.7-10.7,6.5c-0.5,0.2-0.8,0.6-1,1.1s-0.1,1,0.1,1.5
		c0.4,0.7,0.7,1.5,0.9,2.3c-1.8-0.4-3.4-1.4-4.7-2.8c-0.4-0.4-0.9-0.6-1.4-0.6h-0.2c-3.2,0.2-6.5-0.6-9.8-2.1
		c3.6-3,5.7-7.5,5.7-12.4c0-1-0.8-1.8-1.8-1.8S19.6,29,19.6,30c0,4.6-2.4,8.8-6.5,11c-0.6,0.3-0.9,0.9-0.9,1.6
		c0,0.7,0.3,1.3,0.9,1.6c4.3,2.6,9.1,4,13.5,4c0.1,0,0.2,0,0.2,0c2.4,2.3,5.5,3.6,8.8,3.6l0,0c0.5,0,0.9-0.2,1.3-0.5
		c0.3-0.3,0.5-0.8,0.5-1.3c0-1.5-0.3-2.9-0.8-4.3C40,44.2,44.2,42,46.9,39c2.4,3.4,6.3,5.5,10.4,5.5c0.5,0,0.9-0.2,1.3-0.5
		c0.3-0.3,0.5-0.8,0.5-1.3c0-4.3-1-7.4-3.1-9.6C55.2,32.3,55.2,31.3,55.9,30.6z"/>
</g>
</svg>
