<?xml version="1.0" encoding="utf-8"?>
<!-- Generator: Adobe Illustrator 21.1.0, SVG Export Plug-In . SVG Version: 6.00 Build 0)  -->
<svg version="1.1" id="레이어_1" xmlns="http://www.w3.org/2000/svg" xmlns:xlink="http://www.w3.org/1999/xlink" x="0px"
	 y="0px" viewBox="0 0 60 60" style="enable-background:new 0 0 60 60;" xml:space="preserve">
<style type="text/css">
	.st0{fill:#C4C4C4;}
</style>
<g>
	<circle class="st0" cx="10.1" cy="37.2" r="1.8"/>
	<path class="st0" d="M25.6,11.9c0.3,0,0.6,0,1,0c0.9-0.1,1.5-0.8,1.6-1.6c0.3-2.6-0.6-5.1-2.3-6.8h0C24.1,1.6,21.6,0.8,19,1
		c-0.9,0.1-1.5,0.8-1.6,1.6c-0.3,2.6,0.6,5.1,2.3,6.8C21.2,11,23.3,11.9,25.6,11.9z M23.3,5.9c0.6,0.6,1,1.4,1.2,2.2
		c-0.9-0.2-1.6-0.6-2.2-1.2c-0.6-0.6-1-1.4-1.2-2.2C21.9,4.9,22.7,5.3,23.3,5.9z"/>
	<path class="st0" d="M42.6,13.8c-3.5-0.3-6.9,0.3-9.9,1.9c-0.3,0.1-0.6,0.2-0.8,0.3v-0.5c0-4,3.3-7.2,7.2-7.2c1,0,1.8-0.8,1.8-1.8
		c0-1-0.8-1.8-1.8-1.8c-6,0-10.9,4.9-10.9,10.9V16c-0.3-0.1-0.6-0.2-0.8-0.3c-3-1.6-6.5-2.2-9.9-1.9C8.2,14.6,1,22.8,1,32.4
		C1,47,9.4,57.6,21.9,58.9c0.4,0,0.8,0.1,1.2,0.1c1.3,0,2.6-0.2,3.9-0.6c1.9-0.6,4.1-0.6,6,0c1.7,0.6,3.4,0.8,5.1,0.6
		C50.6,57.6,59,47,59,32.4C59,22.8,51.8,14.6,42.6,13.8z M37.8,55.3c-1.2,0.1-2.4,0-3.6-0.4c-2.7-0.9-5.6-0.9-8.3,0
		c-1.2,0.4-2.4,0.5-3.6,0.4C11.7,54.2,4.6,45,4.6,32.4c0-7.7,5.8-14.3,13.1-15c0.5,0,0.9-0.1,1.3-0.1c2.3,0,4.5,0.5,6.6,1.6
		c2.7,1.4,5.9,1.4,8.6,0c2.4-1.2,5.2-1.8,7.9-1.5c7.4,0.7,13.1,7.3,13.1,15C55.4,45,48.3,54.2,37.8,55.3z"/>
	<path class="st0" d="M19.1,20.9c-6,0-10.9,4.9-10.9,10.9c0,1,0.8,1.8,1.8,1.8s1.8-0.8,1.8-1.8c0-4,3.3-7.2,7.2-7.2
		c1,0,1.8-0.8,1.8-1.8C20.9,21.7,20.1,20.9,19.1,20.9z"/>
	<path class="st0" d="M35.1,32.6c-0.6-0.8-1.7-1.1-2.5-0.5c-0.8,0.6-1.1,1.7-0.5,2.5l3.6,5.4c0.3,0.5,0.9,0.8,1.5,0.8
		c0.3,0,0.7-0.1,1-0.3c0.8-0.6,1.1-1.7,0.5-2.5L35.1,32.6z"/>
	<path class="st0" d="M24.9,32.6l-3.6,5.4c-0.6,0.8-0.3,2,0.5,2.5c0.3,0.2,0.7,0.3,1,0.3c0.6,0,1.2-0.3,1.5-0.8l3.6-5.4
		c0.6-0.8,0.3-2-0.5-2.5C26.5,31.6,25.4,31.8,24.9,32.6z"/>
</g>
</svg>
