<?xml version="1.0" encoding="utf-8"?>
<!-- Generator: Adobe Illustrator 21.1.0, SVG Export Plug-In . SVG Version: 6.00 Build 0)  -->
<svg version="1.1" id="레이어_1" xmlns="http://www.w3.org/2000/svg" xmlns:xlink="http://www.w3.org/1999/xlink" x="0px"
	 y="0px" viewBox="0 0 60 60" style="enable-background:new 0 0 60 60;" xml:space="preserve">
<style type="text/css">
	.st0{fill:#001931;}
</style>
<g>
	<circle class="st0" cx="48.1" cy="40.9" r="1.8"/>
	<path class="st0" d="M48.1,37.2c1,0,1.8-0.8,1.8-1.8c0-3.4-1.6-6.6-4.3-8.7c-0.8-0.6-1.9-0.5-2.5,0.3c-0.6,0.8-0.5,1.9,0.3,2.5
		c1.9,1.4,2.9,3.6,2.9,5.8C46.3,36.4,47.1,37.2,48.1,37.2z"/>
	<path class="st0" d="M57.2,48.1h-1c0.6-1.1,1-2.3,1-3.6v-4.3c0-9.4-3.5-16.8-9.7-20.6c-5.9-3.5-13.4-3.4-21.2,0.5L25.1,19
		c-1.6-1.6-3.8-2.5-6-2.5c-1.1,0-2.1,0.2-3.1,0.6L15,16c0.3-0.7,0.5-1.5,0.5-2.3c0-3-2.4-5.4-5.4-5.4c-2.4,0-4.5,1.6-5.2,3.9
		C2.6,12.8,1,14.9,1,17.3c0,3,2.4,5.4,5.4,5.4c0.8,0,1.6-0.2,2.3-0.5l1.4,1.4C10,24.3,9.8,25,9.8,25.8c0,2.3,0.9,4.4,2.5,6l1,1
		c-2.1,3.8-3.2,7-3.2,11.7c0,1.3,0.4,2.6,1,3.6H2.8c-1,0-1.8,0.8-1.8,1.8c0,1,0.8,1.8,1.8,1.8h14.5h32.6h7.2c1,0,1.8-0.8,1.8-1.8
		C59,48.9,58.2,48.1,57.2,48.1z M11.9,20.2l-1.6-1.6c-0.3-0.3-0.8-0.5-1.3-0.5h0c-0.5,0-0.9,0.2-1.3,0.5c-0.3,0.3-0.8,0.5-1.3,0.5
		c-1,0-1.8-0.8-1.8-1.8c0-1,0.8-1.8,1.8-1.8c1,0,1.8-0.8,1.8-1.8c0-1,0.8-1.8,1.8-1.8c1,0,1.8,0.8,1.8,1.8c0,0.5-0.2,0.9-0.5,1.3
		c-0.3,0.3-0.5,0.8-0.5,1.3c0,0.5,0.2,0.9,0.5,1.3l1.6,1.6l-0.6,0.6C12.2,19.9,12.1,20,11.9,20.2C11.9,20.2,11.9,20.2,11.9,20.2z
		 M17.3,48.1c-2,0-3.6-1.6-3.6-3.6c0-4.4,1.1-7.1,3.4-11.1c0.4-0.7,0.3-1.6-0.3-2.2l-2-2c-0.9-0.9-1.4-2.2-1.4-3.5
		c0-1.3,0.5-2.5,1.4-3.5l0.7-0.7c0.9-0.9,2.2-1.4,3.5-1.4c1.3,0,2.5,0.5,3.5,1.4l6.6,6.7c1,1,1,2.6,0,3.6c-0.7,0.7-0.7,1.9,0,2.6
		c0.4,0.4,0.8,0.5,1.3,0.5c0.5,0,0.9-0.2,1.3-0.5c2.4-2.4,2.4-6.3,0-8.7L29,22.9c6.2-2.8,12-2.8,16.6-0.1c5.1,3,8,9.4,8,17.5v4.3
		c0,2-1.6,3.6-3.6,3.6H17.3z"/>
</g>
</svg>
