<?xml version="1.0" encoding="utf-8"?>
<!-- Generator: Adobe Illustrator 21.1.0, SVG Export Plug-In . SVG Version: 6.00 Build 0)  -->
<svg version="1.1" id="레이어_1" xmlns="http://www.w3.org/2000/svg" xmlns:xlink="http://www.w3.org/1999/xlink" x="0px"
	 y="0px" viewBox="0 0 60 60" style="enable-background:new 0 0 60 60;" xml:space="preserve">
<style type="text/css">
	.st0{fill:#001931;}
</style>
<g>
	<path class="st0" d="M35.2,16.3c0-2.8-1.3-5.6-3.4-7.6V4.2c0-0.9-0.8-1.7-1.7-1.7c-0.9,0-1.7,0.8-1.7,1.7v4.4
		c-2.2,2.1-3.4,4.8-3.4,7.6c0,3.1,1.5,6.1,4.1,8.2c0.3,0.3,0.7,0.4,1.1,0.4c0.4,0,0.8-0.1,1.1-0.4C33.7,22.4,35.2,19.4,35.2,16.3z
		 M30,20.7c-1.1-1.3-1.7-2.9-1.7-4.5c0-1.6,0.6-3.2,1.7-4.5c1.1,1.3,1.7,2.9,1.7,4.5C31.7,17.9,31.1,19.4,30,20.7z"/>
	<path class="st0" d="M44.3,44.3L43,45.5c-3.1-0.1-6,0.8-8.1,2.6c-2.4,2-3.5,4.9-3.2,7.9c0.1,0.8,0.7,1.4,1.6,1.5
		c0.4,0,0.9,0.1,1.3,0.1c2.9,0,5.6-0.9,7.6-2.6c2.1-1.8,3.3-4.3,3.2-7l1.2-1.2c0.7-0.7,0.7-1.8,0-2.4C46,43.6,44.9,43.6,44.3,44.3z
		 M40,52.3c-1.2,1-3,1.6-4.8,1.8c0.2-1.3,0.8-2.5,1.9-3.4c1.2-1,3-1.6,4.8-1.8C41.8,50.2,41.1,51.4,40,52.3z"/>
	<path class="st0" d="M44.3,32.2L43,33.5c-3.1-0.1-6,0.8-8.1,2.6c-2.4,2-3.5,4.9-3.2,7.9c0.1,0.8,0.7,1.4,1.6,1.5
		c0.4,0,0.9,0.1,1.3,0.1c2.9,0,5.6-0.9,7.6-2.6c2.1-1.8,3.3-4.3,3.2-7l1.2-1.2c0.7-0.7,0.7-1.8,0-2.4C46,31.6,44.9,31.6,44.3,32.2z
		 M40,40.3c-1.2,1-3,1.6-4.8,1.8c0.2-1.3,0.8-2.5,1.9-3.4c1.2-1,3-1.6,4.8-1.8C41.8,38.2,41.1,39.4,40,40.3z"/>
	<path class="st0" d="M25.1,48c-2.1-1.8-5-2.6-8.1-2.6l-1.2-1.2c-0.7-0.7-1.8-0.7-2.4,0c-0.7,0.7-0.7,1.8,0,2.4l1.2,1.2
		c-0.1,2.7,1.1,5.2,3.2,7c2,1.7,4.7,2.6,7.6,2.6c0.4,0,0.9,0,1.3-0.1c0.8-0.1,1.5-0.7,1.6-1.5C28.6,52.9,27.4,50,25.1,48z M20,52.3
		c-1.1-0.9-1.7-2.1-1.9-3.4c1.9,0.1,3.6,0.7,4.8,1.8c1.1,0.9,1.7,2.1,1.9,3.4C22.9,53.9,21.2,53.3,20,52.3z"/>
	<path class="st0" d="M25.1,36c-2.1-1.8-5-2.7-8.1-2.6l-1.2-1.2c-0.7-0.7-1.8-0.7-2.4,0c-0.7,0.7-0.7,1.8,0,2.4l1.2,1.2
		c-0.1,2.7,1.1,5.2,3.2,7c2,1.7,4.7,2.6,7.6,2.6c0.4,0,0.9,0,1.3-0.1c0.8-0.1,1.5-0.7,1.6-1.5C28.6,40.9,27.4,38,25.1,36z M20,40.3
		c-1.1-0.9-1.7-2.1-1.9-3.4c1.9,0.1,3.6,0.7,4.8,1.8c1.1,0.9,1.7,2.1,1.9,3.4C22.9,41.9,21.2,41.3,20,40.3z"/>
	<path class="st0" d="M25.1,24c-2.1-1.7-4.9-2.6-8-2.6c-0.5-0.7-0.8-1.6-0.8-2.4V7.7c0-0.9-0.8-1.7-1.7-1.7c-0.9,0-1.7,0.8-1.7,1.7
		V19c0,1.7,0.6,3.4,1.7,4.8c-0.1,2.7,1,5.3,3.2,7.1c2,1.7,4.7,2.6,7.6,2.6c0.4,0,0.9,0,1.3-0.1c0.8-0.1,1.5-0.7,1.6-1.5
		C28.6,28.8,27.4,26,25.1,24z M20,28.2c-1.1-0.9-1.7-2.1-1.9-3.4c1.9,0.1,3.6,0.7,4.8,1.8c1.1,0.9,1.7,2.1,1.9,3.4
		C22.9,29.9,21.2,29.3,20,28.2z"/>
	<path class="st0" d="M45.5,5.9c-0.9,0-1.7,0.8-1.7,1.7V19c0,0.9-0.3,1.7-0.8,2.4c-3.1-0.1-5.9,0.8-8,2.6c-2.4,2-3.5,4.9-3.2,7.9
		c0.1,0.8,0.7,1.4,1.6,1.5c0.4,0,0.9,0.1,1.3,0.1c2.9,0,5.6-0.9,7.6-2.6c2.2-1.8,3.3-4.4,3.2-7.1c1.1-1.3,1.7-3,1.7-4.8V7.7
		C47.2,6.7,46.4,5.9,45.5,5.9z M40,28.2c-1.2,1-3,1.6-4.8,1.8c0.2-1.3,0.8-2.5,1.9-3.4c1.2-1,3-1.6,4.8-1.8
		C41.8,26.2,41.1,27.3,40,28.2z"/>
	<path class="st0" d="M38.6,18c0.9,0,1.7-0.8,1.7-1.7V5.9c0-0.9-0.8-1.7-1.7-1.7c-0.9,0-1.7,0.8-1.7,1.7v10.3
		C36.9,17.2,37.6,18,38.6,18z"/>
	<path class="st0" d="M21.4,18c0.9,0,1.7-0.8,1.7-1.7V5.9c0-0.9-0.8-1.7-1.7-1.7c-0.9,0-1.7,0.8-1.7,1.7v10.3
		C19.7,17.2,20.5,18,21.4,18z"/>
</g>
</svg>
