<?xml version="1.0" encoding="utf-8"?>
<!-- Generator: Adobe Illustrator 21.1.0, SVG Export Plug-In . SVG Version: 6.00 Build 0)  -->
<svg version="1.1" id="레이어_1" xmlns="http://www.w3.org/2000/svg" xmlns:xlink="http://www.w3.org/1999/xlink" x="0px"
	 y="0px" viewBox="0 0 60 60" style="enable-background:new 0 0 60 60;" xml:space="preserve">
<style type="text/css">
	.st0{fill:#C4C4C4;}
</style>
<g>
	<path class="st0" d="M30,22.8c-4,0-7.2,3.3-7.2,7.2c0,4,3.3,7.2,7.2,7.2c4,0,7.2-3.3,7.2-7.2C37.2,26,34,22.8,30,22.8z M30,33.6
		c-2,0-3.6-1.6-3.6-3.6s1.6-3.6,3.6-3.6s3.6,1.6,3.6,3.6S32,33.6,30,33.6z"/>
	<path class="st0" d="M37.2,15.5c0,4,3.3,7.2,7.2,7.2c4,0,7.2-3.3,7.2-7.2s-3.3-7.2-7.2-7.2C40.5,8.2,37.2,11.5,37.2,15.5z
		 M48.1,15.5c0,2-1.6,3.6-3.6,3.6s-3.6-1.6-3.6-3.6s1.6-3.6,3.6-3.6S48.1,13.5,48.1,15.5z"/>
	<path class="st0" d="M15.5,37.2c-4,0-7.2,3.3-7.2,7.2s3.3,7.2,7.2,7.2c4,0,7.2-3.3,7.2-7.2S19.5,37.2,15.5,37.2z M15.5,48.1
		c-2,0-3.6-1.6-3.6-3.6s1.6-3.6,3.6-3.6s3.6,1.6,3.6,3.6S17.5,48.1,15.5,48.1z"/>
	<path class="st0" d="M57.2,1H44.5c-6.9,0-12.9,4.9-14.2,11.7c-0.3,1.6-1.4,2.8-2.9,3c-5.9,1.1-10.5,5.7-11.6,11.6
		c-0.3,1.5-1.5,2.6-3,2.9C5.9,31.6,1,37.6,1,44.5v12.7c0,1,0.8,1.8,1.8,1.8h12.7c6.9,0,12.9-4.9,14.2-11.7c0.3-1.6,1.4-2.8,2.9-3
		c5.9-1.1,10.5-5.7,11.6-11.6c0.3-1.5,1.5-2.6,3-2.9C54.1,28.4,59,22.4,59,15.5V2.8C59,1.8,58.2,1,57.2,1z M55.4,15.5
		c0,5.2-3.7,9.7-8.8,10.7c-3,0.6-5.4,2.9-5.9,5.8c-0.8,4.4-4.3,7.9-8.7,8.7c-2.9,0.5-5.2,2.9-5.8,5.9c-1,5.1-5.5,8.8-10.7,8.8H4.6
		V44.5c0-5.2,3.7-9.7,8.8-10.7c3-0.6,5.4-2.9,5.9-5.8c0.8-4.4,4.3-7.9,8.7-8.7c2.9-0.5,5.2-2.9,5.8-5.9c1-5.1,5.5-8.8,10.7-8.8h10.9
		V15.5z"/>
</g>
</svg>
