<?xml version="1.0" encoding="utf-8"?>
<!-- Generator: Adobe Illustrator 21.1.0, SVG Export Plug-In . SVG Version: 6.00 Build 0)  -->
<svg version="1.1" id="레이어_1" xmlns="http://www.w3.org/2000/svg" xmlns:xlink="http://www.w3.org/1999/xlink" x="0px"
	 y="0px" viewBox="0 0 60 60" style="enable-background:new 0 0 60 60;" xml:space="preserve">
<style type="text/css">
	.st0{fill:#C4C4C4;}
</style>
<g>
	<path class="st0" d="M45.8,13.6C41.5,5.5,35.9,1,30,1S18.5,5.5,14.2,13.6c-3.6,6.8-5.9,15.5-5.9,22.7C8.2,50.1,16.8,59,30,59
		s21.8-8.9,21.8-22.7C51.8,29.2,49.5,20.5,45.8,13.6z M30,55.4c-13.4,0-18.1-9.8-18.1-19C11.9,23.8,20,4.6,30,4.6
		s18.1,19.2,18.1,31.7C48.1,45.5,43.4,55.4,30,55.4z"/>
	<path class="st0" d="M30,24.6c-7,0-12.7,5.7-12.7,12.7S23,49.9,30,49.9s12.7-5.7,12.7-12.7S37,24.6,30,24.6z M30,46.3
		c-5,0-9.1-4.1-9.1-9.1s4.1-9.1,9.1-9.1s9.1,4.1,9.1,9.1S35,46.3,30,46.3z"/>
</g>
</svg>
