<?xml version="1.0" encoding="utf-8"?>
<!-- Generator: Adobe Illustrator 21.1.0, SVG Export Plug-In . SVG Version: 6.00 Build 0)  -->
<svg version="1.1" id="레이어_1" xmlns="http://www.w3.org/2000/svg" xmlns:xlink="http://www.w3.org/1999/xlink" x="0px"
	 y="0px" viewBox="0 0 60 60" style="enable-background:new 0 0 60 60;" xml:space="preserve">
<style type="text/css">
	.st0{fill:#C4C4C4;}
</style>
<g>
	<circle class="st0" cx="33.6" cy="13.7" r="1.8"/>
	<path class="st0" d="M42.7,26.4V2.8c0-1-0.8-1.8-1.8-1.8H19.1c-1,0-1.8,0.8-1.8,1.8v23.6c0,6.4,4.8,11.7,10.9,12.5c0,0,0,0.1,0,0.1
		v14.7c-1.2,0.2-2.1,0.6-2.9,0.9c-0.9,0.4-1.6,0.7-2.6,0.7c-1,0-1.8,0.8-1.8,1.8c0,1,0.8,1.8,1.8,1.8c1.7,0,2.9-0.5,4-1
		c1-0.4,1.9-0.8,3.2-0.8c1.3,0,2.2,0.4,3.2,0.8c1.1,0.5,2.3,1,4,1c1,0,1.8-0.8,1.8-1.8c0-1-0.8-1.8-1.8-1.8c-0.9,0-1.7-0.3-2.6-0.7
		c-0.8-0.3-1.7-0.7-2.9-0.9V39.1c0,0,0-0.1,0-0.1C37.9,38,42.7,32.8,42.7,26.4z M30,35.4c-5,0-9.1-4.1-9.1-9.1V15.5h7.2
		c1,0,1.8-0.8,1.8-1.8c0-1-0.8-1.8-1.8-1.8h-7.2V4.6h18.1v21.8C39.1,31.4,35,35.4,30,35.4z"/>
</g>
</svg>
