<?xml version="1.0" encoding="utf-8"?>
<!-- Generator: Adobe Illustrator 21.1.0, SVG Export Plug-In . SVG Version: 6.00 Build 0)  -->
<svg version="1.1" id="레이어_1" xmlns="http://www.w3.org/2000/svg" xmlns:xlink="http://www.w3.org/1999/xlink" x="0px"
	 y="0px" viewBox="0 0 60 60" style="enable-background:new 0 0 60 60;" xml:space="preserve">
<style type="text/css">
	.st0{fill:#001931;}
</style>
<path class="st0" d="M49.7,21.9l-7-12.3V2.8c0-1-0.8-1.8-1.8-1.8H20.9c-1,0-1.8,0.8-1.8,1.8v6.7l-8.7,12.2c-0.1,0.1-0.1,0.2-0.1,0.2
	c0,0.1-0.1,0.1-0.1,0.2c-0.1,0.2-0.1,0.4-0.1,0.6v34.4c0,1,0.8,1.8,1.8,1.8h36.2c1,0,1.8-0.8,1.8-1.8V22.8
	C49.9,22.4,49.9,22.1,49.7,21.9z M39.1,4.6v3.6H22.8V4.6H39.1z M13.7,55.4V24.6h10.9c1,0,1.8-0.8,1.8-1.8s-0.8-1.8-1.8-1.8h-9.2
	l6.5-9.1h15.9l-5.7,10c-0.2,0.3-0.2,0.6-0.2,0.9v32.6H13.7z M46.3,55.4H35.4V23.2l5.4-9.5l5.4,9.5V55.4z"/>
</svg>
