<?xml version="1.0" encoding="utf-8"?>
<!-- Generator: Adobe Illustrator 21.1.0, SVG Export Plug-In . SVG Version: 6.00 Build 0)  -->
<svg version="1.1" id="레이어_1" xmlns="http://www.w3.org/2000/svg" xmlns:xlink="http://www.w3.org/1999/xlink" x="0px"
	 y="0px" viewBox="0 0 60 60" style="enable-background:new 0 0 60 60;" xml:space="preserve">
<style type="text/css">
	.st0{fill:#001931;}
</style>
<g>
	<circle class="st0" cx="13.7" cy="19.1" r="1.8"/>
	<path class="st0" d="M30,1C16,1,4.6,9.4,4.6,19.7c0,3.4,2,6.6,5.2,7.9c2.8,1.2,6.5,1.8,11.1,2.1c-0.1,3.5-0.6,6.3-1,8.8
		c-0.7,3.9-1.2,7.3-0.4,11.6l0,0.2C20.6,55.4,25,59,30,59c5,0,9.4-3.6,10.4-8.5l0-0.2c0.8-3.9,0.2-6.8-0.4-10c-0.4-1.9-0.8-4-1-6.7
		c-0.1-1-1-1.7-2-1.6c-1,0.1-1.7,1-1.6,2c0.3,2.9,0.7,5.1,1.1,7.1c0.6,3.1,1,5.4,0.4,8.6l0,0.2c-0.6,3.3-3.5,5.6-6.8,5.6
		c-3.3,0-6.2-2.4-6.8-5.6l0-0.2c-0.7-3.7-0.2-6.6,0.4-10.3c0.4-2.6,0.9-5.6,1-9.3c1.7,0,3.6,0.1,5.5,0.1c8.9,0,15.7-0.4,20.2-2.3
		c3.2-1.4,5.2-4.5,5.2-7.9C55.4,9.4,44,1,30,1z M48.7,24.3c-4.1,1.8-11.4,2-18.7,2c-7.3,0-14.6-0.2-18.7-2c-1.8-0.8-3-2.6-3-4.6
		C8.2,11.4,18,4.6,30,4.6c12,0,21.8,6.8,21.8,15.1C51.8,21.7,50.6,23.5,48.7,24.3z"/>
	<path class="st0" d="M30,8.2c-6.1,0-11.3,1.8-14.1,5c-0.7,0.8-0.6,1.9,0.2,2.6c0.3,0.3,0.8,0.4,1.2,0.4c0.5,0,1-0.2,1.4-0.6
		c2.1-2.4,6.2-3.8,11.3-3.8c1,0,1.8-0.8,1.8-1.8C31.8,9.1,31,8.2,30,8.2z"/>
</g>
</svg>
