<?xml version="1.0" encoding="utf-8"?>
<!-- Generator: Adobe Illustrator 21.1.0, SVG Export Plug-In . SVG Version: 6.00 Build 0)  -->
<svg version="1.1" id="레이어_1" xmlns="http://www.w3.org/2000/svg" xmlns:xlink="http://www.w3.org/1999/xlink" x="0px"
	 y="0px" viewBox="0 0 60 60" style="enable-background:new 0 0 60 60;" xml:space="preserve">
<style type="text/css">
	.st0{fill:#141414;}
</style>
<g>
	<path class="st0" d="M25.9,10.2c0.2-2.5,0.5-5,0.7-7.4C26.7,1.5,27.1,1,28.5,1c1.1,0,2.1,0,3.2,0c1.2,0,1.7,0.5,1.8,1.7
		c0.2,2.5,0.4,4.9,0.7,7.5c0.3,0,0.5,0,0.8,0c3.2,0,6.4,0.1,9.7,0c2.4-0.1,4.2,1.7,4.2,4.1c-0.1,13.5,0,27.1,0,40.6
		c0,2.5-1.5,4.1-4.1,4.1c-9.8,0-19.7,0-29.5,0c-2.3,0-3.9-1.6-3.9-3.9c0-13.6,0-27.3,0-40.9c0-2.3,1.6-3.9,4-3.9c3.3,0,6.7,0,10,0
		C25.4,10.2,25.6,10.2,25.9,10.2z M13.2,42.1c11.3,0,22.5,0,33.7,0c0-7.5,0-15,0-22.5c-11.2,0-22.4,0-33.7,0
		C13.2,27.1,13.2,34.6,13.2,42.1z M13.2,47.7c11.3,0,22.5,0,33.7,0c0-1,0-1.9,0-2.9c-11.3,0-22.5,0-33.7,0
		C13.2,45.8,13.2,46.7,13.2,47.7z M13.2,51.5c9.5,0,18.9,0,28.3,0c0-0.6,0-1.2,0-1.8c-9.4,0-18.8,0-28.3,0
		C13.2,50.3,13.2,50.9,13.2,51.5z M30.6,55.2c0-0.6,0-1.2,0-1.8c-5.8,0-11.6,0-17.4,0c0,0.6,0,1.2,0,1.8
		C19,55.2,24.8,55.2,30.6,55.2z M25.7,12.2c-1.6-0.3-2.7,0.4-2.7,1.8c0,1,0.8,1.7,1.8,1.8c1.8,0,3.6,0,5.4,0c1.7,0,3.3,0,5,0
		c1.1,0,1.9-0.9,1.8-2c-0.1-1.3-1.2-2-2.7-1.6c0,0.5,0.1,1.1,0.1,1.6c0,0.8-0.4,1.3-1.2,1.3c-2.2,0-4.3,0-6.5,0
		c-0.8,0-1.2-0.5-1.2-1.3C25.6,13.3,25.7,12.7,25.7,12.2z M32,4.9c0-1.1-0.9-2-2-2c-1.1,0-2,0.9-2,2c0,1.1,0.9,2,2,2
		C31.1,6.9,32,6.1,32,4.9z"/>
	<path class="st0" d="M30,32.7c-3.1,0-5.6-2.5-5.6-5.5c0-3.1,2.5-5.7,5.6-5.7c3.1,0,5.6,2.5,5.6,5.6C35.6,30.2,33.1,32.7,30,32.7z"
		/>
	<path class="st0" d="M39.4,40.2c-6.2,0-12.4,0-18.7,0c0.1-0.6,0.1-1.1,0.3-1.6c0.7-2.3,2.8-3.9,5.2-3.9c2.7,0,5.3,0,8,0
		C37,34.7,39.4,37.3,39.4,40.2z"/>
</g>
</svg>
