<?xml version="1.0" encoding="utf-8"?>
<!-- Generator: Adobe Illustrator 21.1.0, SVG Export Plug-In . SVG Version: 6.00 Build 0)  -->
<svg version="1.1" id="레이어_1" xmlns="http://www.w3.org/2000/svg" xmlns:xlink="http://www.w3.org/1999/xlink" x="0px"
	 y="0px" viewBox="0 0 60 60" style="enable-background:new 0 0 60 60;" xml:space="preserve">
<style type="text/css">
	.st0{fill:#001931;}
</style>
<path class="st0" d="M46.7,8c-0.3,0-0.5,0-0.8,0c-5.4-2.8-10.3-4.1-16-4.1S18.9,5.2,14,8c-0.5,0.3-1.5,0-1.8-0.8
	c-0.5-0.5-0.3-1.5,0.5-1.8C18.1,2.6,23.8,1,30,1c6.2-0.3,11.3,1.3,17.3,4.4c0.8,0.3,1,1.3,0.5,2.1C47.5,7.7,47.3,8,46.7,8z
	 M5.8,23.2c-0.3,0-0.5,0-0.8-0.3c-0.8-0.3-1-1.3-0.5-1.8c2.8-4.1,6.4-7.2,10.8-9.5c9-4.6,20.6-4.6,29.6,0c4.1,2.1,7.7,5.2,10.6,9.3
	c0.5,0.8,0.3,1.5-0.3,2.1s-1.5,0.3-2.1-0.3c-2.6-3.6-5.9-6.4-9.8-8.5c-8.2-4.4-18.8-4.4-26.8,0c-3.9,2.1-7.2,4.9-9.8,8.5
	C6.5,23.2,6,23.2,5.8,23.2z M23.6,58.2c-0.3,0-0.8-0.3-1-0.5c-2.6-2.6-3.9-4.1-5.7-7.7c-2.1-3.6-3.1-8-3.1-12.6
	c0-8.5,7.2-15.7,16.2-15.7s16.2,7,16.2,15.7c0,0.8-0.5,1.5-1.5,1.5c-1,0-1.5-0.8-1.5-1.5c0-7-5.9-12.6-13.4-12.6
	s-13.4,5.7-13.4,12.6c0,4.1,1,8,2.6,11.1c1.8,3.3,3.1,4.9,5.2,7c0.5,0.5,0.5,1.5,0,2.1C24.3,58.2,23.8,58.2,23.6,58.2z M44.2,52.8
	c-3.3,0-6.4-0.8-8.8-2.6c-4.1-2.8-6.7-7.7-6.7-12.6c0-0.8,0.5-1.5,1.5-1.5c0.8,0,1.5,0.8,1.5,1.5c0,4.1,2.1,8,5.7,10.3
	c2.1,1.3,4.4,2.1,7.2,2.1c0.8,0,1.8,0,3.1-0.3c0.8-0.3,1.5,0.5,1.5,1.3c0.3,0.8-0.3,1.5-1,1.8C46,52.8,44.4,52.8,44.2,52.8z
	 M38.2,59H38c-4.6-1.3-7.5-3.1-10.6-6.2c-3.9-4.1-6.2-9.5-6.2-15.2c0-4.6,3.9-8.5,8.8-8.5s8.8,3.9,8.8,8.5c0,3.1,2.6,5.7,5.9,5.7
	c3.3,0,5.9-2.6,5.9-5.7c0-10.8-9.3-19.8-20.6-19.8c-8.2,0-15.5,4.6-18.8,11.6c-1,2.3-1.5,5.2-1.5,8.2c0,2.3,0.3,5.9,1.8,10.6
	c0.3,0.8,0,1.5-0.8,1.8s-1.5,0-1.8-0.8c-1.3-3.9-2.1-7.5-2.1-11.3c0-3.6,0.8-6.7,2.1-9.3c3.3-8.5,11.9-13.7,21.1-13.7
	c12.9,0,23.7,10.3,23.7,22.7c0,4.6-3.9,8.5-8.8,8.5s-8.8-3.9-8.8-8.5c0-3.1-2.6-5.7-5.9-5.7s-5.9,2.6-5.9,5.7
	c0,4.9,1.8,9.5,5.4,13.1c2.6,2.8,5.4,4.1,9.3,5.4c0.8,0.3,1.3,1,1,1.8C39.5,58.5,39,59,38.2,59z"/>
</svg>
