<?xml version="1.0" encoding="utf-8"?>
<!-- Generator: Adobe Illustrator 21.1.0, SVG Export Plug-In . SVG Version: 6.00 Build 0)  -->
<svg version="1.1" id="레이어_1" xmlns="http://www.w3.org/2000/svg" xmlns:xlink="http://www.w3.org/1999/xlink" x="0px"
	 y="0px" viewBox="0 0 60 60" style="enable-background:new 0 0 60 60;" xml:space="preserve">
<style type="text/css">
	.st0{fill:#141414;}
</style>
<g>
	<path class="st0" d="M45.9,23.1c2.1,0,4.1,0,6.1,0c5.1,0.1,8.4,5.1,6.4,9.8c-0.3,0.8-0.4,2-0.2,2.9c0.6,2,0.2,3.8-0.7,5.6
		c-0.5,1.1-0.7,2.3-0.9,3.4c-0.7,4.4-2.7,8.3-5.6,11.4c-1.5,1.6-4.8,1.7-7.4,2.1c-7.9,1.2-15.8,0.1-23.6-1c-0.6-0.1-1.5-1.1-1.5-1.7
		c-0.1-9.4-0.1-18.8,0-28.1c0-0.7,0.9-1.6,1.6-2c2.3-1.2,4.9-2,7.2-3.2c5.9-3.1,8.7-8.1,9.1-14.6c0.1-1.2,0.2-2.5,0.5-3.7
		c0.6-1.8,1.8-2.9,3.8-3.1c2-0.1,3.5,0.5,4.4,2.4c2.7,5.7,2.6,11.5,1.1,17.5c-0.2,0.6-0.3,1.2-0.5,1.8
		C45.8,22.8,45.8,22.9,45.9,23.1z M21.9,54.3c8.4,1.6,16.7,1.9,25,0.4c0.9-0.2,2.1-0.3,2.4-0.9c1.5-2.7,2.7-5.5,4-8.2
		c0.1-0.3-0.1-0.7,0-1c0.3-1.4,0.7-2.8,1.1-4.3c0.3-1.1,0.9-2.4,0.6-3.3c-0.7-1.9-0.5-3.5,0.4-5.4c1.2-2.4-0.6-5-3.3-5.1
		c-1.7,0-3.3,0-5,0c-4.2,0-5.4-1.6-4.2-5.6c1.4-4.5,1.7-9,0.3-13.5c-0.4-1.1-1.4-2-2.1-3c-0.4,1.1-1.1,2.2-1.2,3.4
		c-0.7,7.7-3.7,13.9-10.8,17.6c-1.9,1-3.9,1.7-5.8,2.7c-0.6,0.3-1.3,1.1-1.3,1.7C21.9,37.8,21.9,46,21.9,54.3z"/>
	<path class="st0" d="M13.6,41.6c0,4.5-0.1,9,0,13.5c0.1,2-0.7,2.7-2.7,2.6c-2.7-0.1-5.4-0.1-8.1,0c-1.3,0-1.9-0.5-1.9-1.8
		c0-9.4,0-18.9,0-28.3c0-1.4,0.6-2,2-2c2.8,0,5.7,0.1,8.5,0c1.5,0,2.1,0.6,2.1,2.1C13.6,32.3,13.6,37,13.6,41.6z M4.5,29.1
		c0,8.5,0,16.8,0,25.2c2,0,3.8,0,5.7,0c0-8.4,0-16.7,0-25.2C8.3,29.1,6.4,29.1,4.5,29.1z"/>
</g>
</svg>
