<?xml version="1.0" encoding="utf-8"?>
<!-- Generator: Adobe Illustrator 21.1.0, SVG Export Plug-In . SVG Version: 6.00 Build 0)  -->
<svg version="1.1" id="레이어_1" xmlns="http://www.w3.org/2000/svg" xmlns:xlink="http://www.w3.org/1999/xlink" x="0px"
	 y="0px" viewBox="0 0 60 60" style="enable-background:new 0 0 60 60;" xml:space="preserve">
<style type="text/css">
	.st0{fill:#141414;}
</style>
<g>
	<path class="st0" d="M30,40.5c-8.4,0-16.8,0-25.2,0c-2.4,0-3.7-1.3-3.7-3.7c0-4.6,0-9.1,0-13.7c0-2.3,1.4-3.6,3.6-3.6
		c16.9,0,33.9,0,50.8,0c2.2,0,3.6,1.4,3.6,3.6c0,4.6,0,9.2,0,13.9c0,2.2-1.4,3.6-3.6,3.6C46.9,40.5,38.4,40.5,30,40.5z M29.9,22.5
		c-8.3,0-16.7,0-25,0c-0.6,0-1,0-1,0.8c0,4.5,0,8.9,0,13.4c0,0.7,0.2,0.9,0.9,0.9c16.7,0,33.5,0,50.2,0c0.7,0,0.9-0.2,0.9-0.9
		c0-4.3,0-8.7,0-13c0-1.1,0-1.1-1.1-1.1C46.6,22.5,38.3,22.5,29.9,22.5z"/>
	<path class="st0" d="M10.9,29.9c-0.6-0.4-1.2-0.7-1.8-1.1c0.3-0.5,0.7-1.1,1-1.7c0.5,0.3,1,0.6,1.6,1c0-0.7,0-1.2,0-1.8
		c0.6,0,1.2,0,1.8,0c0,0.6,0,1.2,0,1.9c0.7-0.4,1.3-0.7,1.9-1.1c0.3,0.6,0.6,1.1,1,1.6c-0.6,0.4-1.3,0.7-1.9,1.1
		c0.7,0.4,1.3,0.8,1.9,1.3c-0.3,0.5-0.6,1-1,1.6c-0.6-0.4-1.2-0.7-1.9-1.2c0,0.8,0,1.4,0,2.1c-0.6,0-1.2,0-1.8,0c0-0.7,0-1.3,0-2.1
		c-0.7,0.4-1.2,0.6-1.8,1c-0.3-0.5-0.6-1-0.9-1.6C9.7,30.7,10.3,30.3,10.9,29.9z"/>
	<path class="st0" d="M34.7,28.1c0-0.7,0-1.2,0-1.9c0.6,0,1.2,0,1.8,0c0,0.6,0,1.2,0,1.9c0.7-0.4,1.2-0.7,1.9-1.1
		c0.3,0.6,0.6,1.1,1,1.7c-0.6,0.4-1.2,0.8-1.9,1.2c0.7,0.5,1.3,0.9,1.9,1.3c-0.3,0.5-0.6,1-1,1.6c-0.6-0.4-1.2-0.7-1.8-1.1
		c0,0.7,0,1.4,0,2.1c-0.7,0-1.2,0-1.8,0c0-0.7,0-1.3,0-2.2c-0.7,0.4-1.2,0.6-1.9,1c-0.3-0.5-0.6-1-0.9-1.6c0.6-0.4,1.1-0.7,1.8-1.1
		c-0.6-0.4-1.2-0.8-1.8-1.2c0.3-0.5,0.7-1,1-1.6C33.6,27.5,34.1,27.8,34.7,28.1z"/>
	<path class="st0" d="M48,28.1c0.7-0.4,1.2-0.7,1.8-1c0.3,0.5,0.6,1.1,1,1.6c-0.6,0.4-1.2,0.8-1.9,1.2c0.7,0.4,1.3,0.8,1.9,1.3
		c-0.3,0.6-0.6,1.1-1,1.6c-0.6-0.4-1.1-0.7-1.8-1.1c0,0.8,0,1.4,0,2.1c-0.7,0-1.2,0-1.8,0c0-0.7,0-1.3,0-2.1c-0.7,0.4-1.2,0.6-1.8,1
		c-0.3-0.5-0.6-1-0.9-1.6c0.6-0.4,1.2-0.7,1.8-1.1c-0.6-0.4-1.2-0.7-1.8-1.1c0.3-0.5,0.7-1.1,1-1.7c0.5,0.3,1,0.6,1.7,1
		c0-0.7,0-1.3,0-1.9c0.7,0,1.2,0,1.8,0C48,26.8,48,27.4,48,28.1z"/>
	<path class="st0" d="M23.3,26.2c0.7,0,1.2,0,1.9,0c0,0.6,0,1.2,0,1.9c0.7-0.4,1.3-0.7,1.9-1.1c0.3,0.6,0.6,1.1,1,1.6
		c-0.6,0.4-1.2,0.8-1.9,1.2c0.7,0.5,1.3,0.9,1.9,1.3c-0.3,0.5-0.6,1-1,1.6c-0.6-0.4-1.2-0.7-1.8-1.1c0,0.8,0,1.4,0,2.1
		c-0.6,0-1.2,0-1.8,0c0-0.7,0-1.3,0-2.1c-0.7,0.4-1.2,0.6-1.8,1c-0.3-0.5-0.6-1-1-1.6c0.6-0.4,1.2-0.7,1.8-1.1
		c-0.6-0.4-1.2-0.7-1.8-1.1c0.3-0.5,0.7-1.1,1-1.7c0.5,0.3,1.1,0.6,1.7,1C23.3,27.5,23.3,26.9,23.3,26.2z"/>
</g>
</svg>
