<?xml version="1.0" encoding="utf-8"?>
<!-- Generator: Adobe Illustrator 21.1.0, SVG Export Plug-In . SVG Version: 6.00 Build 0)  -->
<svg version="1.1" id="레이어_1" xmlns="http://www.w3.org/2000/svg" xmlns:xlink="http://www.w3.org/1999/xlink" x="0px"
	 y="0px" viewBox="0 0 60 60" style="enable-background:new 0 0 60 60;" xml:space="preserve">
<style type="text/css">
	.st0{fill:#141414;}
</style>
<g>
	<path class="st0" d="M50.1,16.6c0,14.2,0,28.3,0,42.4c-13.4,0-26.8,0-40.2,0c0-14.1,0-28.2,0-42.5c1.9,0.1,3.8,0,5.6,0.3
		c2.1,0.3,3.7,1.7,4.6,3.7c0.5,1.1,1,2.3,1.5,3.4c0.8,1.8,2.3,2.8,4.3,2.8c2.7,0,5.4,0,8.1,0c2.1,0,3.5-0.9,4.3-2.8
		c0.5-1.1,0.9-2.1,1.4-3.2c1.2-2.6,3.3-4,6.2-4.1C47.4,16.6,48.7,16.6,50.1,16.6z M47.8,56.8c0-12.7,0-25.3,0-37.9
		c-0.6,0-1.2,0-1.8,0c-2,0-3.4,0.9-4.2,2.8c-0.5,1.2-1,2.4-1.6,3.5c-1.2,2.4-3.2,3.7-5.9,3.7c-2.8,0-5.6,0-8.5,0
		c-2.9,0-4.9-1.4-6.1-4c-0.5-1-0.9-2-1.4-3.1c-1.2-2.8-3.4-3.2-6.1-2.9c0,12.6,0,25.2,0,37.8C24.1,56.8,35.9,56.8,47.8,56.8z"/>
	<path class="st0" d="M40.1,16.4c-0.1-0.5,0.2-1.2-0.5-1.4c-0.9-0.3-1.7-0.4-2.6,0.1c-0.2,0.1-0.3,0.5-0.3,0.7c0,2,0,3.9,0,5.9
		c0,1.2-0.9,2.5-1.9,2.7c-0.1,0-0.2,0-0.3,0c0-0.6,0-1.2,0-1.8c0-0.4-0.2-0.6-0.5-0.8c-0.8-0.3-1.5-0.3-2.3-0.1
		c-0.4,0.1-0.5,0.3-0.5,0.7c0,0.6,0,1.3,0,2c-0.4,0-0.7,0-1.1,0c-0.4,0-0.7,0-1.2,0c0-0.6,0-1.2,0-1.8c0-0.6-0.2-0.9-0.7-0.9
		c-0.7-0.1-1.4-0.1-2.1,0c-0.4,0-0.6,0.3-0.5,0.7c0,0.6,0,1.3,0,1.9c-0.7,0-1.2-0.3-1.5-0.8c-0.7-1.3-1.3-2.7-2-4.2
		c0.5,0.1,0.8,0.1,1.2,0.2c0-0.5,0-1,0-1.5c0-2.2,0-4.3,0-6.5c0-0.5-0.2-0.8-0.7-0.9c-0.4-0.1-0.7-0.2-1.1-0.2
		c-1.3,0-1.6,0.2-1.6,1.5c0,1.5,0,3,0,4.5c-0.7-0.4-1.4-0.8-2-1.2c-0.1-0.1-0.2-0.4-0.2-0.5c0-1.1,0-2.2,0-3.2
		c0-0.5-0.2-0.8-0.6-0.9c-0.4-0.1-0.7-0.2-1.1-0.2c-1.3,0-1.6,0.2-1.6,1.6c0,0.7,0,1.5,0,2.2c0,0,0,0.1-0.1,0.2c-0.7,0-1.4,0-2,0
		c0-1.4-0.1-2.7,0-4.1c0.1-0.9,0.8-1.4,1.6-1.7c1.5-0.6,3-0.5,4.4,0.2c0.3,0.1,0.5,0.2,0.8,0c1.6-0.8,3.2-0.8,4.8,0
		c0.2,0.1,0.5,0.1,0.7,0c1.6-0.8,3.2-0.8,4.9,0c0.2,0.1,0.4,0.2,0.6,0.1C31.5,8,32.9,8,34.5,8.4c0-1.1,0-2.2,0-3.3
		c0-2.3,1.1-3.5,3.4-3.6c0.7,0,1.4,0.1,2.1,0.2c1.6,0.5,2.3,1.4,2.3,3.1c0,1.1,0,2.3,0,3.4c0.9,0,1.8-0.1,2.7,0
		c0.7,0.1,1.4,0.4,1.9,0.9c0.4,0.4,0.8,1,0.9,1.6c0.1,1.2,0,2.4,0,3.6c-0.7,0-1.4,0-2.2,0c0-0.9,0-1.9,0-2.8c0-0.6-0.2-0.9-0.7-1
		c-0.7-0.1-1.4-0.1-2.1,0c-0.4,0-0.5,0.3-0.5,0.7c0,1.1,0,2.3,0,3.4c0,0.2-0.2,0.5-0.4,0.6C41.3,15.7,40.7,16,40.1,16.4z M28.9,19.4
		c0-0.1,0-0.3,0-0.5c0-2.3,0-4.6,0-6.9c0-1.3-0.2-1.5-1.5-1.6c-0.4,0-0.8,0-1.1,0.1c-0.5,0.1-0.7,0.4-0.7,0.9c0,2.5,0,5,0,7.5
		c0,0.2,0,0.4,0,0.5C26.7,19.4,27.8,19.4,28.9,19.4z M34.5,19.4c0-0.1,0-0.4,0-0.6c0-2.3,0-4.6,0-6.9c0-1.2-0.2-1.5-1.4-1.5
		c-0.4,0-0.8,0-1.2,0.1c-0.5,0.1-0.7,0.4-0.7,0.9c0,2.5,0,5.1,0,7.6c0,0.2,0,0.3,0,0.4C32.3,19.4,33.3,19.4,34.5,19.4z M40.1,12.6
		c0-0.2,0-0.4,0-0.6c0-2.3,0-4.5,0-6.8c0-1.3-0.2-1.5-1.5-1.6c-0.4,0-0.8,0-1.1,0.1c-0.5,0.1-0.7,0.4-0.7,0.9c0,2.4,0,4.8,0,7.3
		c0,0.2,0,0.5,0,0.7C37.8,12.6,38.9,12.6,40.1,12.6z"/>
	<path class="st0" d="M9.9,9.9c0-3,0-5.9,0-8.9c7.8,0,15.6,0,23.4,0c-0.4,0.7-0.7,1.4-1.1,2.2c-6.6,0-13.3,0-20.1,0c0,1,0,2.1,0,3.1
		c0,0.5-0.1,0.8-0.5,1C10.8,7.9,10.2,8.9,9.9,9.9z"/>
	<path class="st0" d="M47.9,3.2c-1.1,0-2,0-3,0c-0.3,0-0.5-0.1-0.6-0.4C44,2.2,43.6,1.6,43.3,1c2.2,0,4.5,0,6.8,0c0,3,0,6,0,9.2
		c-0.4-1.4-1-2.4-2-3.1c-0.1-0.1-0.2-0.4-0.2-0.6C47.9,5.4,47.9,4.3,47.9,3.2z"/>
	<path class="st0" d="M16.6,54.5c0-5.9,0-11.8,0-17.8c8.9,0,17.8,0,26.7,0c0,5.9,0,11.8,0,17.8C34.5,54.5,25.6,54.5,16.6,54.5z
		 M41.1,39c-7.5,0-14.8,0-22.3,0c0,4.5,0,8.9,0,13.3c7.4,0,14.8,0,22.3,0C41.1,47.8,41.1,43.4,41.1,39z"/>
</g>
</svg>
