<?xml version="1.0" encoding="utf-8"?>
<!-- Generator: Adobe Illustrator 21.1.0, SVG Export Plug-In . SVG Version: 6.00 Build 0)  -->
<svg version="1.1" id="레이어_1" xmlns="http://www.w3.org/2000/svg" xmlns:xlink="http://www.w3.org/1999/xlink" x="0px"
	 y="0px" viewBox="0 0 60 60" style="enable-background:new 0 0 60 60;" xml:space="preserve">
<style type="text/css">
	.st0{fill:#141414;}
	.st1{fill:#FFFFFF;}
</style>
<g>
	<path class="st0" d="M8.4,46.5c0.7-2.4,1.4-4.8,2.2-7.1c1.5-4,3-8,4.8-11.8c1.4-3,3.4-5.5,6.9-6.2c0.8-0.2,1.6-0.2,2.4-0.2
		c3.5,0,6.9,0.2,10.4,0c4-0.2,7.1,1.4,8.8,4.8c2.2,4.5,4,9.1,5.9,13.8c0.7,1.7,1.1,3.4,1.6,5.2c0.7,2.6,0.5,3.7-1.9,5
		c-4.7,2.6-9.7,4.9-14.4,7.5c-3.5,1.9-6.6,1.9-10,0c-4.6-2.6-9.4-4.8-14.1-7.4C9.6,49.5,8.3,48.5,8.4,46.5z M38.2,46.6
		c-0.9-0.6-1.5-1-2-1.4c-3.1-2.3-6.3-4.7-9.4-7c-1.2-0.9-2.3-1.3-3.3,0.1c-1,1.2-0.7,2.4,0.4,3.4c1.3,1.2,2.6,2.4,4.1,3.8
		c-2,0.1-3.8,0.3-5.5,0.4c-0.1,0.2-0.1,0.4-0.2,0.5c2.5,1.5,4.9,3,7.4,4.4c0.2,0.1,0.5,0.1,0.7,0C32.8,49.5,35.2,48.2,38.2,46.6z
		 M44.5,39.1c0-3.2-2.2-5.6-5.2-5.6c-3,0-5.3,2.3-5.3,5.5c0,3.1,2.3,5.6,5.2,5.6C42.1,44.7,44.5,42.2,44.5,39.1z"/>
	<path class="st0" d="M38.7,9.6c0,4.8-3.8,8.8-8.3,8.8c-4.4,0-8.3-4-8.3-8.7C22,5.1,25.9,1,30.4,1C34.9,1,38.7,4.9,38.7,9.6z"/>
	<path class="st1" d="M38.2,46.6c-3,1.6-5.4,2.9-7.8,4.1c-0.2,0.1-0.5,0.1-0.7,0c-2.5-1.5-4.9-2.9-7.4-4.4c0.1-0.2,0.1-0.4,0.2-0.5
		c1.8-0.1,3.5-0.3,5.5-0.4c-1.5-1.4-2.8-2.6-4.1-3.8c-1.1-1-1.4-2.1-0.4-3.4c1.1-1.4,2.2-0.9,3.3-0.1c3.1,2.4,6.3,4.7,9.4,7
		C36.7,45.6,37.3,46,38.2,46.6z"/>
	<path class="st1" d="M44.5,39.1c0,3.1-2.4,5.6-5.3,5.5c-3,0-5.2-2.5-5.2-5.6c0-3.1,2.3-5.5,5.3-5.5C42.4,33.6,44.5,35.9,44.5,39.1z
		"/>
</g>
</svg>
