<?xml version="1.0" encoding="utf-8"?>
<!-- Generator: Adobe Illustrator 21.1.0, SVG Export Plug-In . SVG Version: 6.00 Build 0)  -->
<svg version="1.1" id="레이어_1" xmlns="http://www.w3.org/2000/svg" xmlns:xlink="http://www.w3.org/1999/xlink" x="0px"
	 y="0px" viewBox="0 0 60 60" style="enable-background:new 0 0 60 60;" xml:space="preserve">
<style type="text/css">
	.st0{fill:#C4C4C4;stroke:#C4C4C4;stroke-miterlimit:10;}
</style>
<path class="st0" d="M54,38.2c0-0.6-0.2-1.1-0.6-1.5l-2-2c-0.2-0.2-0.4-0.3-0.6-0.4l1.6-1.6c0.4-0.4,0.6-1,0.6-1.5
	c0-0.6-0.2-1.1-0.6-1.5l-2-2c-0.8-0.8-2.2-0.8-3.1,0L41,33.9L26.1,19l6.3-6.3c0.8-0.8,0.8-2.2,0-3.1l-2-2c-0.8-0.8-2.2-0.8-3.1,0
	l-1.6,1.6c-0.1-0.2-0.2-0.4-0.4-0.6l-2-2c-0.8-0.8-2.2-0.8-3.1,0L17,9.9l-3.1-3.1c-0.3-0.3-0.7-0.3-1,0l-6,6
	c-0.1,0.1-0.2,0.3-0.2,0.5c0,0.2,0.1,0.4,0.2,0.5L9.9,17l-3.3,3.3c-0.8,0.8-0.8,2.2,0,3.1l2,2c0.2,0.2,0.4,0.3,0.6,0.4l-1.6,1.6
	c-0.4,0.4-0.6,1-0.6,1.5c0,0.6,0.2,1.1,0.6,1.5l2,2c0.4,0.4,1,0.6,1.5,0.6c0.6,0,1.1-0.2,1.5-0.6l6.3-6.3L33.9,41l-6.3,6.3
	c-0.8,0.8-0.8,2.2,0,3.1l2,2c0.4,0.4,1,0.6,1.5,0.6c0.6,0,1.1-0.2,1.5-0.6l1.6-1.6c0.1,0.2,0.2,0.4,0.4,0.6l2,2
	c0.4,0.4,1,0.6,1.5,0.6c0.6,0,1.1-0.2,1.5-0.6l3.3-3.3l2.5,2.5c0.1,0.1,0.3,0.2,0.5,0.2c0.2,0,0.4-0.1,0.5-0.2l6-6
	c0.3-0.3,0.3-0.7,0-1L50.1,43l3.3-3.3C53.8,39.3,54,38.7,54,38.2z M8.4,13.4l5-5L16,11l-5,5L8.4,13.4z M9.6,24.3l-2-2
	c-0.3-0.3-0.3-0.7,0-1L21.3,7.7c0.1-0.1,0.3-0.2,0.5-0.2c0.2,0,0.4,0.1,0.5,0.2l2,2c0.1,0.1,0.2,0.3,0.2,0.5c0,0.2-0.1,0.4-0.2,0.5
	L10.7,24.3C10.4,24.6,9.9,24.6,9.6,24.3z M11.7,31.4c-0.3,0.3-0.7,0.3-1,0l-2-2c-0.3-0.3-0.3-0.7,0-1l3-3l13.7-13.7l3-3
	c0.3-0.3,0.7-0.3,1,0l2,2c0.3,0.3,0.3,0.7,0,1L11.7,31.4z M20,25.1l5-5L40,34.9l-5,5L20,25.1z M31.6,51.3c-0.3,0.3-0.8,0.3-1,0l-2-2
	c-0.3-0.3-0.3-0.7,0-1l19.7-19.7c0.1-0.1,0.3-0.2,0.5-0.2c0.2,0,0.4,0.1,0.5,0.2l2,2c0.1,0.1,0.2,0.3,0.2,0.5c0,0.2-0.1,0.4-0.2,0.5
	l-3,3l0,0l-6.8,6.8L31.6,51.3z M51,46l-5,5l-2-2l5-5L51,46z M52.3,38.7L38.7,52.3c-0.3,0.3-0.8,0.3-1,0l-2-2c-0.3-0.3-0.3-0.7,0-1
	l13.7-13.7c0.1-0.1,0.3-0.2,0.5-0.2c0.2,0,0.4,0.1,0.5,0.2l2,2c0.1,0.1,0.2,0.3,0.2,0.5C52.6,38.4,52.5,38.5,52.3,38.7z"/>
</svg>
