<?xml version="1.0" encoding="utf-8"?>
<!-- Generator: Adobe Illustrator 21.1.0, SVG Export Plug-In . SVG Version: 6.00 Build 0)  -->
<svg version="1.1" id="레이어_1" xmlns="http://www.w3.org/2000/svg" xmlns:xlink="http://www.w3.org/1999/xlink" x="0px"
	 y="0px" viewBox="0 0 60 60" style="enable-background:new 0 0 60 60;" xml:space="preserve">
<style type="text/css">
	.st0{fill:#001931;}
</style>
<g>
	<path class="st0" d="M43.1,16.6l0.6-0.9c0.5-0.7,0.6-1.6,0.5-2.4c-0.2-0.8-0.7-1.6-1.4-2.1c-0.7-0.5-1.6-0.6-2.4-0.5
		c-0.8,0.2-1.6,0.7-2,1.4L37.7,13c-2.1-1.1-4.4-1.8-6.9-2.2V8.1h2c0.5,0,0.9-0.5,0.9-1C33.7,3.7,31,1,27.6,1h-1.2
		c-3.4,0-6.1,2.7-6.1,6.2c0,0.5,0.4,0.9,0.9,0.9h2v2.7c-2.4,0.4-4.7,1.1-6.9,2.2l-0.6-0.9c-0.5-0.7-1.2-1.2-2-1.4
		c-0.8-0.2-1.7,0-2.5,0.5c-0.7,0.5-1.2,1.2-1.4,2c-0.2,0.8,0,1.7,0.5,2.4l0.6,0.9c-5,4.4-8.2,10.9-8.2,18.1C2.8,48.1,13.6,59,27,59
		s24.2-10.9,24.2-24.2C51.2,27.6,48.1,21.1,43.1,16.6z M39.7,13.1c0.2-0.3,0.5-0.5,0.9-0.6c0.4-0.1,0.8,0,1.2,0.3
		c0.3,0.2,0.5,0.5,0.6,0.9c0.1,0.4,0,0.8-0.2,1.1l-0.5,0.8c-0.8-0.6-1.6-1.2-2.5-1.7L39.7,13.1z M22.1,6.3c0.4-2,2.2-3.6,4.3-3.6
		h1.2c2.1,0,3.9,1.5,4.3,3.6H22.1z M25,8.1H29v2.5c-0.7-0.1-1.4-0.1-2-0.1c-0.7,0-1.4,0-2,0.1V8.1z M11.8,14.7
		c-0.2-0.3-0.3-0.7-0.2-1.1c0.1-0.4,0.3-0.7,0.7-1c0.2-0.2,0.5-0.2,0.8-0.2c0.1,0,0.2,0,0.3,0c0.4,0.1,0.7,0.3,0.9,0.6l0.5,0.8
		c-0.9,0.5-1.7,1.1-2.5,1.7L11.8,14.7z M27,57.2c-12.4,0-22.5-10.1-22.5-22.5c0-12.4,10.1-22.5,22.5-22.5
		c12.4,0,22.5,10.1,22.5,22.5C49.5,47.2,39.4,57.2,27,57.2z"/>
	<path class="st0" d="M27,15.6c-10.6,0-19.2,8.6-19.2,19.2c0,10.6,8.6,19.2,19.2,19.2c10.6,0,19.2-8.6,19.2-19.2
		C46.2,24.2,37.6,15.6,27,15.6z M27.9,52.1v-4.3c0-0.5-0.4-0.9-0.9-0.9c-0.5,0-0.9,0.4-0.9,0.9v4.3c-8.9-0.4-16.1-7.6-16.5-16.5h4.3
		c0.5,0,0.9-0.4,0.9-0.9c0-0.5-0.4-0.9-0.9-0.9H9.6c0.4-8.9,7.6-16.1,16.5-16.5v4.3c0,0.5,0.4,0.9,0.9,0.9c0.5,0,0.9-0.4,0.9-0.9
		v-4.3c8.9,0.4,16.1,7.6,16.5,16.5h-4.3c-0.5,0-0.9,0.4-0.9,0.9c0,0.5,0.4,0.9,0.9,0.9h4.3C43.9,44.5,36.8,51.7,27.9,52.1z"/>
	<path class="st0" d="M33.4,25.6l-5.2,6.3c-0.4-0.2-0.8-0.2-1.2-0.2c-1.7,0-3.1,1.4-3.1,3.1c0,1.7,1.4,3.1,3.1,3.1
		c1.7,0,3.1-1.4,3.1-3.1c0-0.7-0.2-1.3-0.5-1.8l5.2-6.3c0.3-0.4,0.3-0.9-0.1-1.2C34.2,25.1,33.7,25.2,33.4,25.6z M27,36.1
		c-0.7,0-1.4-0.6-1.4-1.4c0-0.7,0.6-1.4,1.4-1.4c0.7,0,1.4,0.6,1.4,1.4C28.4,35.5,27.7,36.1,27,36.1z"/>
</g>
<g>
	<path class="st0" d="M48.2,10.4h-4.1l0-0.9l2.8-3.7h-2.6v-1h4v0.9l-2.8,3.7h2.8V10.4z"/>
</g>
<g>
	<path class="st0" d="M55.6,9h-5.9l0-1.3l4-5.3h-3.7V1h5.7v1.3l-4,5.3h4V9z"/>
</g>
</svg>
