<?xml version="1.0" encoding="utf-8"?>
<!-- Generator: Adobe Illustrator 21.1.0, SVG Export Plug-In . SVG Version: 6.00 Build 0)  -->
<svg version="1.1" id="레이어_1" xmlns="http://www.w3.org/2000/svg" xmlns:xlink="http://www.w3.org/1999/xlink" x="0px"
	 y="0px" viewBox="0 0 60 60" style="enable-background:new 0 0 60 60;" xml:space="preserve">
<style type="text/css">
	.st0{fill:#141414;}
</style>
<g>
	<path class="st0" d="M31.2,23.4c0,0.9,0,1.7,0,2.1c1.8,1,3.6,1.7,5.1,2.9c3.7,2.9,5.2,6.9,4.3,11.6c-0.9,4.6-3.7,7.6-8,9.2
		c-1.2,0.4-1.5,1-1.5,2.1c0.1,1.9,0,3.8,0,5.7c-1.6,0-3.1,0-4.7,0c0-3.4-0.1-6.7,0-10c0-1.3,1-1.9,2.7-2c5.5-0.3,8.7-6.1,6-10.9
		c-1.3-2.4-3.4-3.5-6-3.7c-2.1-0.2-2.7-0.8-2.7-2.9c0-1.4,0-2.7,0-4.2C28,23.4,29.5,23.4,31.2,23.4z"/>
</g>
<path class="st0" d="M28.5,5c3.6,0,6.5,2.9,6.5,6.5S32.1,18,28.5,18S22,15.1,22,11.5S24.9,5,28.5,5 M28.5,2C23.3,2,19,6.3,19,11.5
	s4.3,9.5,9.5,9.5c5.2,0,9.5-4.3,9.5-9.5S33.7,2,28.5,2L28.5,2z"/>
</svg>
