<?xml version="1.0" encoding="utf-8"?>
<!-- Generator: Adobe Illustrator 21.1.0, SVG Export Plug-In . SVG Version: 6.00 Build 0)  -->
<svg version="1.1" id="레이어_1" xmlns="http://www.w3.org/2000/svg" xmlns:xlink="http://www.w3.org/1999/xlink" x="0px"
	 y="0px" viewBox="0 0 60 60" style="enable-background:new 0 0 60 60;" xml:space="preserve">
<style type="text/css">
	.st0{fill:#C4C4C4;stroke:#C4C4C4;stroke-miterlimit:10;}
</style>
<g>
	<path class="st0" d="M47.3,11.5h-3.9C39.8,7.9,35.1,6,30,6c-5.1,0-9.8,1.9-13.5,5.5h-3.9c-3.7,0-6.7,3-6.7,6.7v29.2
		C6,51,9,54,12.7,54h34.7c3.7,0,6.7-3,6.7-6.7V18.1C54,14.4,51,11.5,47.3,11.5z M52.5,47.3c0,2.9-2.3,5.2-5.2,5.2H12.7
		c-2.9,0-5.2-2.3-5.2-5.2V18.1c0-2.9,2.3-5.2,5.2-5.2h4.2c0.2,0,0.4-0.1,0.5-0.2c3.4-3.4,7.9-5.2,12.7-5.2c4.8,0,9.3,1.9,12.7,5.2
		c0.1,0.1,0.3,0.2,0.5,0.2h4.2c2.9,0,5.2,2.3,5.2,5.2V47.3z"/>
	<path class="st0" d="M30,10.6c-5.1,0-9.9,2.6-12.8,6.9c-0.1,0.2-0.2,0.5-0.1,0.7l3.6,7.9c0.1,0.3,0.4,0.4,0.7,0.4h17
		c0.3,0,0.5-0.2,0.7-0.4l3.6-7.9c0.1-0.2,0.1-0.5-0.1-0.7C39.9,13.1,35.1,10.6,30,10.6z M32.9,25h-5.9c0.3-1.3,1.5-2.3,2.9-2.3
		C31.4,22.7,32.6,23.7,32.9,25z M38.1,25h-3.6c-0.2-1.5-1.2-2.7-2.4-3.3l1.3-4.1c0.1-0.4-0.1-0.8-0.5-0.9c-0.4-0.1-0.8,0.1-0.9,0.5
		l-1.3,4.1c-0.2,0-0.4,0-0.6,0c-2.2,0-4.1,1.6-4.4,3.8h-3.6l-3.3-7.1c1-1.4,2.2-2.6,3.6-3.5l0.9,1.6c0.1,0.2,0.4,0.4,0.6,0.4
		c0.1,0,0.3,0,0.4-0.1c0.3-0.2,0.5-0.6,0.3-1l-0.9-1.6c1.8-0.9,3.7-1.5,5.8-1.6v1.8c0,0.4,0.3,0.7,0.7,0.7c0.4,0,0.7-0.3,0.7-0.7V12
		c2.1,0.1,4,0.7,5.8,1.6l-0.9,1.6c-0.2,0.3-0.1,0.8,0.3,1c0.1,0.1,0.2,0.1,0.4,0.1c0.2,0,0.5-0.1,0.6-0.4l0.9-1.6
		c1.4,0.9,2.6,2.1,3.6,3.5L38.1,25z"/>
</g>
</svg>
