<?xml version="1.0" encoding="utf-8"?>
<!-- Generator: Adobe Illustrator 21.1.0, SVG Export Plug-In . SVG Version: 6.00 Build 0)  -->
<svg version="1.1" id="레이어_1" xmlns="http://www.w3.org/2000/svg" xmlns:xlink="http://www.w3.org/1999/xlink" x="0px"
	 y="0px" viewBox="0 0 60 60" style="enable-background:new 0 0 60 60;" xml:space="preserve">
<style type="text/css">
	.st0{fill:none;stroke:#001931;stroke-width:2.8448;stroke-miterlimit:10;}
</style>
<g>
	<path class="st0" d="M30,16.2c-7.6,0-13.8,6.2-13.8,13.8S22.4,43.8,30,43.8S43.8,37.6,43.8,30S37.6,16.2,30,16.2z"/>
	<g>
		<g>
			<path class="st0" d="M30,12.2c-1.5,0-2.7-1.2-2.7-2.7V5.2c0-1.5,1.2-2.7,2.7-2.7c1.5,0,2.7,1.2,2.7,2.7v4.3
				C32.7,11,31.5,12.2,30,12.2z"/>
		</g>
		<g>
			<path class="st0" d="M30,47.8c-1.5,0-2.7,1.2-2.7,2.7v4.3c0,1.5,1.2,2.7,2.7,2.7c1.5,0,2.7-1.2,2.7-2.7v-4.3
				C32.7,49,31.5,47.8,30,47.8z"/>
		</g>
		<g>
			<path class="st0" d="M42.6,17.4c-1-1-1-2.8,0-3.8l3-3c1-1,2.8-1,3.8,0c1,1,1,2.8,0,3.8l-3,3C45.4,18.4,43.7,18.4,42.6,17.4z"/>
		</g>
		<g>
			<path class="st0" d="M17.4,42.6c-1-1-2.8-1-3.8,0l-3,3c-1,1-1,2.8,0,3.8c1,1,2.8,1,3.8,0l3-3C18.4,45.4,18.4,43.7,17.4,42.6z"/>
		</g>
		<g>
			<path class="st0" d="M47.8,30c0-1.5,1.2-2.7,2.7-2.7h4.3c1.5,0,2.7,1.2,2.7,2.7s-1.2,2.7-2.7,2.7h-4.3C49,32.7,47.8,31.5,47.8,30
				z"/>
		</g>
		<g>
			<path class="st0" d="M12.2,30c0-1.5-1.2-2.7-2.7-2.7H5.2c-1.5,0-2.7,1.2-2.7,2.7s1.2,2.7,2.7,2.7h4.3C11,32.7,12.2,31.5,12.2,30z
				"/>
		</g>
		<g>
			<path class="st0" d="M42.6,42.6c1-1,2.8-1,3.8,0l3,3c1,1,1,2.8,0,3.8c-1,1-2.8,1-3.8,0l-3-3C41.6,45.4,41.6,43.7,42.6,42.6z"/>
		</g>
		<g>
			<path class="st0" d="M17.4,17.4c1-1,1-2.8,0-3.8l-3-3c-1-1-2.8-1-3.8,0c-1,1-1,2.8,0,3.8l3,3C14.6,18.4,16.3,18.4,17.4,17.4z"/>
		</g>
	</g>
</g>
</svg>
