<?xml version="1.0" encoding="utf-8"?>
<!-- Generator: Adobe Illustrator 21.1.0, SVG Export Plug-In . SVG Version: 6.00 Build 0)  -->
<svg version="1.1" id="레이어_1" xmlns="http://www.w3.org/2000/svg" xmlns:xlink="http://www.w3.org/1999/xlink" x="0px"
	 y="0px" viewBox="0 0 60 60" style="enable-background:new 0 0 60 60;" xml:space="preserve">
<style type="text/css">
	.st0{fill:#C4C4C4;stroke:#C4C4C4;stroke-miterlimit:10;}
</style>
<path class="st0" d="M51.6,7.5H8.8c-0.4,0-0.7,0.3-0.7,0.7v29c0,0.4,0.3,0.7,0.7,0.7h10.8l0.9,5.8l0.9,5.7l0.8,4.8
	c0.1,0.4,0.4,0.6,0.7,0.6c0,0,0.1,0,0.1,0c0.4-0.1,0.7-0.4,0.6-0.8l-0.6-3.7c0.3,0.1,0.6,0.1,0.9,0.2c0.1,0,0.1,0,0.2,0
	c0.3,0,0.6,0.1,0.9,0.1c0,0,0,0,0,0c0.3,0,0.6,0.1,1,0.1c0.1,0,0.2,0,0.3,0c0.1,0,0.3,0,0.4,0l0.2,4c0,0.4,0.4,0.7,0.8,0.7
	c0.4,0,0.7-0.4,0.7-0.8L28.2,51c0.1,0,0.1,0,0.2,0c0.6,0,1.2,0,1.7,0c0.6,0,1.1,0,1.7,0c0.1,0,0.1,0,0.2,0l-0.2,3.8
	c0,0.4,0.3,0.7,0.7,0.8c0,0,0,0,0,0c0.4,0,0.7-0.3,0.7-0.7l0.2-4c0,0,0,0,0,0c0.3,0,0.6-0.1,0.9-0.1c0,0,0.1,0,0.1,0
	c0.2,0,0.5-0.1,0.7-0.1c0.1,0,0.2,0,0.3,0c0.2,0,0.4-0.1,0.6-0.1c0.1,0,0.2,0,0.2,0c0.3,0,0.5-0.1,0.7-0.1c0,0,0,0,0,0L36.6,54
	c-0.1,0.4,0.2,0.8,0.6,0.8c0.4,0.1,0.8-0.2,0.8-0.6l0.8-4.8l0.9-5.7l1-5.8h10.8c0.4,0,0.7-0.3,0.7-0.7v-29C52.3,7.8,52,7.5,51.6,7.5
	z M22,43.2C22,43.1,22,43.1,22,43.2l-0.7-4.1c1.3,0.5,3.2,0.8,4.9,1l0.2,3.9c0,0,0,0-0.1,0c0,0-0.1,0-0.1,0c-0.2,0-0.5-0.1-0.7-0.1
	c-0.1,0-0.1,0-0.2,0c-0.2,0-0.4-0.1-0.6-0.1c-0.1,0-0.1,0-0.2,0c-0.2,0-0.4-0.1-0.6-0.1c0,0,0,0-0.1,0c-0.2,0-0.4-0.1-0.6-0.1
	c0,0-0.1,0-0.1,0c-0.2,0-0.3-0.1-0.5-0.1c-0.1,0-0.1,0-0.2,0c-0.1,0-0.3-0.1-0.4-0.1C22.1,43.2,22.1,43.2,22,43.2z M26.6,49.4
	c-0.3,0-0.5-0.1-0.8-0.1c-0.1,0-0.2,0-0.3,0c-0.3,0-0.6-0.1-0.9-0.1c0,0-0.1,0-0.1,0c-0.2,0-0.5-0.1-0.7-0.1c-0.1,0-0.1,0-0.2,0
	c-0.2-0.1-0.5-0.1-0.7-0.2c0,0,0,0,0,0l-0.7-4c0,0,0.1,0,0.1,0c0.2,0.1,0.4,0.1,0.6,0.2c0.1,0,0.2,0,0.3,0.1c0.2,0,0.4,0.1,0.7,0.1
	c0.1,0,0.2,0,0.3,0c0.3,0.1,0.7,0.1,1,0.2c0.1,0,0.1,0,0.2,0c0.3,0,0.6,0.1,0.9,0.1c0,0,0.1,0,0.1,0l0.2,3.9
	C26.7,49.4,26.6,49.4,26.6,49.4z M32.2,49.4L32.2,49.4c-0.1,0.1-0.1,0.1-0.2,0.1c-1.2,0.1-2.4,0.1-3.6,0c-0.1,0-0.1,0-0.2,0l0-0.1
	l-0.2-3.8c0.1,0,0.2,0,0.2,0c0.7,0,1.3,0.1,2,0.1c0.7,0,1.3,0,2-0.1c0.1,0,0.2,0,0.2,0L32.2,49.4z M32.5,44.1c-0.1,0-0.2,0-0.3,0
	c-0.6,0-1.3,0.1-2,0.1c0,0-0.1,0-0.1,0c-0.7,0-1.3,0-2-0.1c-0.1,0-0.2,0-0.3,0l-0.2-3.9c1.3,0.1,2.2,0.1,2.5,0.1s1.3,0,2.5-0.1
	L32.5,44.1z M37.5,48.8C37.5,48.8,37.5,48.8,37.5,48.8c-0.3,0.1-0.5,0.1-0.8,0.2c-0.1,0-0.1,0-0.2,0c-0.2,0-0.5,0.1-0.7,0.1
	c0,0-0.1,0-0.1,0c-0.3,0-0.6,0.1-0.9,0.1c-0.1,0-0.2,0-0.3,0c-0.3,0-0.5,0.1-0.8,0.1c-0.1,0-0.1,0-0.1,0l0.2-3.9c0,0,0.1,0,0.1,0
	c0.3,0,0.6-0.1,0.9-0.1c0.1,0,0.1,0,0.2,0c0.3,0,0.7-0.1,1-0.2c0.1,0,0.2,0,0.3-0.1c0.2,0,0.5-0.1,0.7-0.1c0.1,0,0.2,0,0.3-0.1
	c0.2-0.1,0.4-0.1,0.6-0.2c0,0,0.1,0,0.1,0L37.5,48.8z M38.4,43.1C38.4,43.1,38.4,43.1,38.4,43.1c-0.1,0-0.2,0.1-0.2,0.1
	c-0.1,0-0.2,0.1-0.4,0.1c-0.1,0-0.1,0-0.2,0c-0.1,0-0.3,0.1-0.5,0.1c0,0-0.1,0-0.1,0c-0.2,0-0.4,0.1-0.6,0.1c0,0,0,0-0.1,0
	c-0.2,0-0.4,0.1-0.6,0.1c-0.1,0-0.1,0-0.2,0c-0.2,0-0.4,0.1-0.6,0.1c-0.1,0-0.1,0-0.2,0c-0.2,0-0.5,0.1-0.7,0.1c0,0-0.1,0-0.1,0
	c0,0,0,0-0.1,0l0.2-3.9c1.7-0.2,3.6-0.5,4.9-1L38.4,43.1z M30.2,38.8c-5.4,0-8.7-1-9.2-1.6c0.5-0.6,3.8-1.6,9.2-1.6
	c5.4,0,8.7,1,9.2,1.6C38.9,37.9,35.6,38.8,30.2,38.8z M32.5,31h-4.6h-7.7V18.6h19.9V31H32.5z M32.1,32.5l1.4,1.9
	c-1.6-0.1-3-0.1-3.4-0.1c-0.4,0-1.7,0-3.4,0.1l1.4-1.9H32.1z M50.8,36.5H40.6c-0.7-1.1-2.9-1.6-5.1-1.9l-1.6-2.1h7
	c0.4,0,0.7-0.3,0.7-0.7V17.9c0-0.4-0.3-0.7-0.7-0.7H19.5c-0.4,0-0.7,0.3-0.7,0.7v13.9c0,0.4,0.3,0.7,0.7,0.7h7l-1.6,2.1
	c-2.2,0.3-4.4,0.9-5.1,1.9H9.5V9h41.3V36.5z"/>
</svg>
